<mxfile host="app.diagrams.net" agent="Mozilla/5.0 (Windows NT 10.0; Win64; x64) AppleWebKit/537.36 (KHTML, like Gecko) Chrome/128.0.0.0 Safari/537.36" version="26.1.3">
  <diagram name="PÃ¡gina-1" id="DvAADKjf4am4AXz_w_2m">
    <mxGraphModel dx="4467" dy="49" grid="0" gridSize="10" guides="0" tooltips="1" connect="1" arrows="1" fold="1" page="0" pageScale="1" pageWidth="827" pageHeight="1169" math="0" shadow="0">
      <root>
        <mxCell id="0" />
        <mxCell id="1" parent="0" />
        <mxCell id="fLMCegYD0Tb1E4QCByGs-110" value="&lt;div style=&quot;text-align: justify;&quot;&gt;&lt;span style=&quot;background-color: transparent; color: light-dark(rgb(0, 0, 0), rgb(255, 255, 255));&quot;&gt;Daily Process&lt;/span&gt;&lt;/div&gt;" style="rounded=1;whiteSpace=wrap;html=1;fillColor=none;labelPosition=center;verticalLabelPosition=top;align=center;verticalAlign=bottom;" parent="1" vertex="1">
          <mxGeometry x="-1275" y="1375" width="4613" height="887" as="geometry" />
        </mxCell>
        <mxCell id="fLMCegYD0Tb1E4QCByGs-1" value="" style="rounded=1;whiteSpace=wrap;html=1;fillColor=none;labelPosition=center;verticalLabelPosition=top;align=center;verticalAlign=bottom;" parent="1" vertex="1">
          <mxGeometry x="-1431" y="1294" width="4819" height="1651" as="geometry" />
        </mxCell>
        <mxCell id="fLMCegYD0Tb1E4QCByGs-2" value="&lt;div style=&quot;text-align: justify;&quot;&gt;&lt;span style=&quot;background-color: transparent; color: light-dark(rgb(0, 0, 0), rgb(255, 255, 255));&quot;&gt;Near Real Time Pipelines Template&lt;/span&gt;&lt;/div&gt;" style="rounded=1;whiteSpace=wrap;html=1;fillColor=none;labelPosition=center;verticalLabelPosition=top;align=center;verticalAlign=bottom;" parent="1" vertex="1">
          <mxGeometry x="-1271" y="2338" width="4513" height="502" as="geometry" />
        </mxCell>
        <mxCell id="fLMCegYD0Tb1E4QCByGs-3" value="Data Sync" style="rounded=1;whiteSpace=wrap;html=1;fillColor=none;labelPosition=center;verticalLabelPosition=top;align=center;verticalAlign=bottom;" parent="1" vertex="1">
          <mxGeometry x="2325" y="2406.5" width="818" height="363" as="geometry" />
        </mxCell>
        <mxCell id="fLMCegYD0Tb1E4QCByGs-4" style="edgeStyle=orthogonalEdgeStyle;rounded=0;orthogonalLoop=1;jettySize=auto;html=1;" parent="1" source="fLMCegYD0Tb1E4QCByGs-5" target="fLMCegYD0Tb1E4QCByGs-88" edge="1">
          <mxGeometry relative="1" as="geometry" />
        </mxCell>
        <mxCell id="fLMCegYD0Tb1E4QCByGs-5" value="Data Entry" style="rounded=1;whiteSpace=wrap;html=1;fillColor=none;labelPosition=center;verticalLabelPosition=top;align=center;verticalAlign=bottom;" parent="1" vertex="1">
          <mxGeometry x="-1236" y="2414" width="729" height="348" as="geometry" />
        </mxCell>
        <mxCell id="fLMCegYD0Tb1E4QCByGs-6" value="Data Lake Iris 1.0" style="rounded=1;whiteSpace=wrap;html=1;fillColor=none;dashed=1;labelPosition=center;verticalLabelPosition=bottom;align=center;verticalAlign=top;" parent="1" vertex="1">
          <mxGeometry x="-1092" y="2472" width="441" height="234" as="geometry" />
        </mxCell>
        <mxCell id="fLMCegYD0Tb1E4QCByGs-7" value="Source Table" style="image;aspect=fixed;html=1;points=[];align=center;fontSize=12;image=img/lib/azure2/general/Table.svg;" parent="1" vertex="1">
          <mxGeometry x="-897" y="2561" width="64" height="52" as="geometry" />
        </mxCell>
        <mxCell id="fLMCegYD0Tb1E4QCByGs-8" style="edgeStyle=orthogonalEdgeStyle;rounded=0;orthogonalLoop=1;jettySize=auto;html=1;entryX=0.042;entryY=0.628;entryDx=0;entryDy=0;entryPerimeter=0;" parent="1" source="fLMCegYD0Tb1E4QCByGs-9" target="fLMCegYD0Tb1E4QCByGs-74" edge="1">
          <mxGeometry relative="1" as="geometry" />
        </mxCell>
        <mxCell id="fLMCegYD0Tb1E4QCByGs-9" value="Merge" style="rounded=1;whiteSpace=wrap;html=1;fillColor=none;labelPosition=center;verticalLabelPosition=top;align=center;verticalAlign=bottom;" parent="1" vertex="1">
          <mxGeometry x="802" y="1441" width="941" height="760" as="geometry" />
        </mxCell>
        <mxCell id="fLMCegYD0Tb1E4QCByGs-10" value="Data Sync" style="rounded=1;whiteSpace=wrap;html=1;fillColor=none;labelPosition=center;verticalLabelPosition=top;align=center;verticalAlign=bottom;" parent="1" vertex="1">
          <mxGeometry x="2788" y="1443.5" width="475" height="758" as="geometry" />
        </mxCell>
        <mxCell id="fLMCegYD0Tb1E4QCByGs-11" style="edgeStyle=orthogonalEdgeStyle;rounded=0;orthogonalLoop=1;jettySize=auto;html=1;exitX=1;exitY=0.5;exitDx=0;exitDy=0;entryX=-0.066;entryY=0.599;entryDx=0;entryDy=0;entryPerimeter=0;" parent="1" source="fLMCegYD0Tb1E4QCByGs-12" target="fLMCegYD0Tb1E4QCByGs-43" edge="1">
          <mxGeometry relative="1" as="geometry">
            <Array as="points" />
            <mxPoint x="1517" y="1691" as="targetPoint" />
          </mxGeometry>
        </mxCell>
        <mxCell id="fLMCegYD0Tb1E4QCByGs-12" value="Eligibility&amp;nbsp;" style="rounded=1;whiteSpace=wrap;html=1;fillColor=none;labelPosition=center;verticalLabelPosition=top;align=center;verticalAlign=bottom;" parent="1" vertex="1">
          <mxGeometry x="-545" y="1441" width="1283" height="760" as="geometry" />
        </mxCell>
        <mxCell id="fLMCegYD0Tb1E4QCByGs-13" value="Algo Communication Eligibilities" style="rounded=1;whiteSpace=wrap;html=1;fillColor=none;dashed=1;labelPosition=center;verticalLabelPosition=bottom;align=center;verticalAlign=top;" parent="1" vertex="1">
          <mxGeometry x="-495" y="1626" width="1189" height="415" as="geometry" />
        </mxCell>
        <mxCell id="fLMCegYD0Tb1E4QCByGs-14" style="edgeStyle=orthogonalEdgeStyle;rounded=0;orthogonalLoop=1;jettySize=auto;html=1;entryX=0;entryY=0.5;entryDx=0;entryDy=0;" parent="1" source="fLMCegYD0Tb1E4QCByGs-15" target="fLMCegYD0Tb1E4QCByGs-34" edge="1">
          <mxGeometry relative="1" as="geometry" />
        </mxCell>
        <mxCell id="fLMCegYD0Tb1E4QCByGs-15" value="Automatized Eligibilities" style="image;aspect=fixed;html=1;points=[];align=center;fontSize=12;image=img/lib/azure2/analytics/Azure_Databricks.svg;" parent="1" vertex="1">
          <mxGeometry x="-427" y="1695" width="62.8" height="68" as="geometry" />
        </mxCell>
        <mxCell id="fLMCegYD0Tb1E4QCByGs-16" value="Orchastration" style="image;aspect=fixed;html=1;points=[];align=center;fontSize=12;image=img/lib/azure2/databases/Data_Factory.svg;" parent="1" vertex="1">
          <mxGeometry x="3269" y="2819" width="60" height="60" as="geometry" />
        </mxCell>
        <mxCell id="fLMCegYD0Tb1E4QCByGs-17" value="Data Entry" style="rounded=1;whiteSpace=wrap;html=1;fillColor=none;labelPosition=center;verticalLabelPosition=top;align=center;verticalAlign=bottom;" parent="1" vertex="1">
          <mxGeometry x="-1226.9" y="1445" width="590" height="760" as="geometry" />
        </mxCell>
        <mxCell id="fLMCegYD0Tb1E4QCByGs-18" value="Manual Input" style="rounded=1;whiteSpace=wrap;html=1;fillColor=none;dashed=1;labelPosition=center;verticalLabelPosition=bottom;align=center;verticalAlign=top;" parent="1" vertex="1">
          <mxGeometry x="-1170" y="1997" width="480" height="145" as="geometry" />
        </mxCell>
        <mxCell id="fLMCegYD0Tb1E4QCByGs-19" value="&lt;span style=&quot;color: rgb(0, 0, 0); text-wrap: wrap;&quot;&gt;Manual Comms&lt;/span&gt;" style="sketch=0;pointerEvents=1;shadow=0;dashed=0;html=1;strokeColor=#006EAF;fillColor=#1ba1e2;labelPosition=center;verticalLabelPosition=bottom;verticalAlign=top;outlineConnect=0;align=center;shape=mxgraph.office.users.csv_file;fontColor=#ffffff;" parent="1" vertex="1">
          <mxGeometry x="-961.4" y="2034" width="59" height="43" as="geometry" />
        </mxCell>
        <mxCell id="fLMCegYD0Tb1E4QCByGs-20" value="Data Lake Iris 1.0" style="rounded=1;whiteSpace=wrap;html=1;fillColor=none;dashed=1;labelPosition=center;verticalLabelPosition=bottom;align=center;verticalAlign=top;" parent="1" vertex="1">
          <mxGeometry x="-1153.7" y="1468" width="443.6" height="295" as="geometry" />
        </mxCell>
        <mxCell id="fLMCegYD0Tb1E4QCByGs-21" value="General Rank" style="image;aspect=fixed;html=1;points=[];align=center;fontSize=12;image=img/lib/azure2/general/Table.svg;" parent="1" vertex="1">
          <mxGeometry x="-1071.4" y="1497" width="64" height="52" as="geometry" />
        </mxCell>
        <mxCell id="fLMCegYD0Tb1E4QCByGs-22" value="Missions" style="image;aspect=fixed;html=1;points=[];align=center;fontSize=12;image=img/lib/azure2/general/Table.svg;" parent="1" vertex="1">
          <mxGeometry x="-1071.4" y="1661.25" width="64" height="52" as="geometry" />
        </mxCell>
        <mxCell id="fLMCegYD0Tb1E4QCByGs-23" value="Finance" style="image;aspect=fixed;html=1;points=[];align=center;fontSize=12;image=img/lib/azure2/general/Table.svg;" parent="1" vertex="1">
          <mxGeometry x="-851.4" y="1497" width="64" height="52" as="geometry" />
        </mxCell>
        <mxCell id="fLMCegYD0Tb1E4QCByGs-24" value="Services" style="image;aspect=fixed;html=1;points=[];align=center;fontSize=12;image=img/lib/azure2/general/Table.svg;" parent="1" vertex="1">
          <mxGeometry x="-946.4" y="1586.5" width="64" height="52" as="geometry" />
        </mxCell>
        <mxCell id="fLMCegYD0Tb1E4QCByGs-25" value="Others" style="image;aspect=fixed;html=1;points=[];align=center;fontSize=12;image=img/lib/azure2/general/Table.svg;" parent="1" vertex="1">
          <mxGeometry x="-848.4" y="1669" width="64" height="52" as="geometry" />
        </mxCell>
        <mxCell id="fLMCegYD0Tb1E4QCByGs-26" value="Nested Attribute:&amp;nbsp;&lt;span style=&quot;color: rgb(17, 23, 28); font-family: -apple-system, BlinkMacSystemFont, &amp;quot;Segoe UI&amp;quot;, Roboto, &amp;quot;Helvetica Neue&amp;quot;, Arial, &amp;quot;Noto Sans&amp;quot;, sans-serif, &amp;quot;Apple Color Emoji&amp;quot;, &amp;quot;Segoe UI Emoji&amp;quot;, &amp;quot;Segoe UI Symbol&amp;quot;, &amp;quot;Noto Color Emoji&amp;quot;; text-align: left; white-space-collapse: preserve;&quot;&gt;brazil_eligibility_attributes&lt;/span&gt;" style="rounded=1;whiteSpace=wrap;html=1;fillColor=none;dashed=1;labelPosition=center;verticalLabelPosition=bottom;align=center;verticalAlign=top;" parent="1" vertex="1">
          <mxGeometry x="2882" y="1744" width="296" height="154" as="geometry" />
        </mxCell>
        <mxCell id="fLMCegYD0Tb1E4QCByGs-27" value="https://dashboard-03.braze.com/" style="shape=image;verticalLabelPosition=bottom;labelBackgroundColor=default;verticalAlign=top;aspect=fixed;imageAspect=0;image=data:image/png,iVBORw0KGgoAAAANSUhEUgAAAJ0AAABMCAIAAAD4JiILAAARU0lEQVR4Ae1ca1BV1RffX5rhIuDlJcozJS1QMjLSkEQGxXiZjzEZDKMxwWoYLCBTtCtJipQiPhFEHoZmhg6gpKkBAQKD5CMCBYEQAVHAiyB8cs6ff2fa7dbeZ3PuFRuhy4dae+3fepz1O+ee/ToiQfc3GiuARuNF6a5J0PE6Om+CJ+K1oaHBz89PX1/fy8uru7t7dFZoZF7VE/E6fvx49NffokWLRmYFRmfW2vN6/fr1vzj9//9NTU1HZ4VG5lVpz+vx48dJXi0sLEZmBUZn1trzGhsbS/Lq7u4+Ois0Mq9Ke15XrlxJ8vrhhx+OzAqMzqy159XZ2Znkde/evaOzQiPzqrTk9fHjx8899xzJa1FR0ciswOjMWkteq6urSVIRQmq1enRWaGRelZa8fvvttySvU6ZMGZmXP2qz1pLXTz/9lOR1xYoVo7ZCI/PCtOT1zTffJHnVDZqeNfa15NXAwIDk9cqVK8/ahf3H89GGV7CCqKen9/jx4/94HZ+1y9eG13379pEPq4+PD76qrq6ugj//fv/9d6zUSLhz505iYuKJEyc0stIC3NjYKKZaXFzc29urhQctTLq6uqqqqrQwrKqqKigoqKys7Ovrk2OuDa/Lly8neY2Pjy8rKwsLC3NzcyP1CCEnJ6etW7fKr1pOTg72sGDBAjkXoCmmtrY2Ojp6+vTpOJAoeHp6gpspMjLSwsLCzs5uz549zChqtbqoqOjq1autra1MgKhUq9WlpaU7d+708/MTY02YMKGiooJjInb19/enp6f7+/uDVG1tbUNDQ+/fv8/xoA2vlpaWZKQpU6aQTVo2MTHZt28fJwncZWdnR5q3tbXhLlooLy+/d+8erZfSNDc3L1q0iPRPy8uXLxfNP//8c7K3uroauP36669JAELIxMTE0dFxzpw57u7ubm5utra2AEA27e3tgUOy2dPTExMTY2ZmRpoAWalUFhcXk1akrDGv9fX1IIDMZnh4OBmYlm/evAlcpaenFxQUNDc3t7S0nD59OiYmZuHChQ4ODiRs3bp1tCtac+TIESMjI9JQSo6Jient7VUoFCQgPT2d9Hnp0iWyVzu5ubmZ9Inl7OxscmOb43zMmDFXr17FhqSgMa9paWmcSPyuiIgIMjaQ9+/fzzeX6pUqEPYfEhIiZcvUx8TEAP3Zs2exN0EQdu7cCQCaNo2MjEiHWF63bp1Grtzc3LAtKWjMa3BwsEaBAZgzIwKvbWDIaRYWFpKXBORly5ZxbOV0KRSK/v5+0u2ZM2fkGHIwhw8fJh2KcmRkJMdEqqu2tpZ2pTGv4BVIBnNyctq4cWN2dvbRo0c/++yzl19+mewV5VmzZtFJiBoLCwsaP6RGX1+fszS9fft2pgd/f/9jx44VFBQkJyd7e3szMVjp6elJ57x48WIM0FT45JNPaIf0C1t0GxAQkJ+f393d/fDhQ5VKRcc6ePAg7U0zXulXoBjG0tIyJyeH9r527Vo6j8uXL9PI2tpaGilHs2HDBtqbqLl8+TLt4Y033rh27RowOXPmzJgxY2iwqImJiQF4sVldXZ2Xl5eenr5jx47o6OiQkJDFixfPnTvX/c8/Ly+v4ODgmTNnArdz586lvZ08eRLAEELOzs7Xr18HYLCCixCKiooCGEHQ8Jzpnj176PB2dnZ3796lXYua119/HZgwmaBfrq6urmKB8H/nzZtnZWVFelMoFJzhPhhhIYTc3d2l5n/MyoqxOMNOqasW9Tdu3AC3i42NDZ1wU1MTPaZbunQp0zn9aIWFhdFIzZ5XX19fsqwIoTFjxty8eZP2izX0q4h5YmbevHmkZ3Nzc+wBC01NTSQGIcT8QRPxe/fuBeAZM2aA1yT2LArgpIBobmhoCGAym/fu3XvhhRfIHBQKBXNRYs6cOSQMIUQu9YBwra2tALxp0yaA0ex57evrAx4RQsz3PwgDLs/KygoA7t+/DzyvWbMGYAab9NtFakFArVaDyZ+lpSV/NiwIwoEDB0AaCKG3336bzmRITV9f34wZM4C37Oxs2pC+762srDiHsbOzs4HbrKws2q0GzyvtUeaZ4ffffx+kAvJITk4GgAsXLgCMIAhgph8cHExjRE10dDRwKOe3tLKyElghhBISEqSicPT0Akh8fDwT/9prr4Gg/JMn4IcNIcS8XzXgNSgoiMxAqVR2dnYycwVKelAKAJ6enqRnExMTABAEIS8vj8QghDhL0OBhXbZsGe2Q1tA/GwihyspKGsnXbNiwAaS6cuVKpklFRQVA+vv7M5GiMj8/H+DfeustJl4DXpVKJek0MjKS6ZFW0ksZJIZewAoJCSEBoowXV8UcOG+g77//nswTIXTr1i3aIa3p6ekBhvr6+jSMrzl69Chw4uzsPDAwwLSiF0zKy8uZSEEQWlpabGxsgPOCggImXi6v586dAx4bGxuZHmnl4cOHSVszMzMSEx4eTvYihOhr6+zsBJhTp06RTkh5/vz5JJg5+yTxWKbHZZruPVRVVenp6ZHRjY2N//jjDxwCCGDK/uqrrwIAbra3t4NhCkJo/vz5GAAEubyGhoaS6fr5+QFHnOaOHTtIW2dnZwxWq9VgJjB16lTciwXwAuZ8M9LQ0EDGQghlZGRgP3yhqqoK2G7bto1vQva2t7dbW1sDD+fOnSMxpHzt2jUAjo6OJgFYbmlpoedsCoWC82jJ4rW/vx/8CO/atQtHHVIAC4SBgYHYJD4+HlxbYmIi7sUCeAFzthDopbiuri7shy9kZGSAZOhfDo4HegQktaAhOjl06BAIxxwxFRcXm5iYACRCKDU1lZOMLF53794N/JaVlXGcgq5JkyaR5nFxcSLg0aNHEyZMILtMTEzodQO1Wk1iEELMFStBEAYGBkAJpk+fDpLhNFetWkUGYg7fpMxXrFhB2iKEvL29pcCinr4F6em11AZDaGgo37ksXidOnAiSpjOQCtPY2Ahs8V25ceNG0MWcYh87doyEgdczGTc1NZVEIoSY82DShJTBZeK9WBLDlLds2QLiTpo06cGDB0wwVoIdFPDh2m+//UavQYpRPvjgA+xEShia14SEBJA0p7J0GLCYgJdvaL6lFgXBo8Ap97Rp00Cq33zzDZ0SU1NUVARsZZ4FoAfARkZGNTU1zCikEsxx8bBjYGBg/fr1IBncZK4Gk25FeQhe6+vrwQAPISS1d0h7FwQBDM3feecdEQZemQgh5sMqCAIYjDC3LwRBoEfsCKEDBw4ws6KVS5cuxbUThV9//ZWGAU15eTmwQgidP38ewJhNsIEo8nrixAmw/EL6z8zMZLqilUPwSh9ZQgjJn9VlZWWRaSGEfv75Z0EQMjMzgd7MzGxwH4rOr6urCyClHoUFCxYAJEJo+/bttE9ac+vWLWBrYGBAw4Cmu7ub5kDmUy4IAvgg0czMjLNj6ODgwFmHAYkNsT68ZMkScLW4STuiNb29vWBYJM5hLl68iP1gQepsGA2mAwmC8NNPP2FXpPDxxx8z8UAJjrkjhCZPngwwdJOmQaPvHqKioshUOfJXX31FR+drJJ9X8OsPosq5d8LCwoBVRkbG+fPn9fX1gd7Dw0MqS7B/5+joyETSb1YxxOzZs5l4Urlr1y6QD0KIs/8v2tKvwGnTpskfTvb19QUGBtJxgcbb25szSSWvAsgMXm/fvj1r1iwQADQ3b94MHIEmvTdia2sLPnEXfZqbm9+5cweY4yY4asSct3zxxRcgPbLJP/104cIFEoxlZiCcFT3w1tfXr6urwwCO0NfXFxcXZ2pqimMxhYkTJ548eZLjRxCEzs7OmJgYX1/f+Ph4sFQJec3NzQVLEMyohoaGnL303Nxc2gqsxYsAAwMDzoknQRDAQ08/r/TcGoRev369VHVKSkroHw/RXKFQSFkxd+DDwsLEU+bl5eUtLS1M24cPH27btg3MsEG2CCF7e3s5u58pKSmkLZjR/oNXeiNCtFQqlT4+PqQXhJCDgwPzxBQ9LwKGuDl27NiSkhJmCbByzZo1GI8Q0tPTI0+Z0+c3mDzl5uZih1iQmvLjcKdPn8ZgLCQlJWEAX3BxcQkPDxc30R4+fBgbG2tsbMw3EXvfffdd5tYbzqGmpoberQPT3795jYiIYEY1MDCoqKiQOn8UERFRWlo6+GB1dXWlpKTQ5+iZPhFCdnZ2zNsCZy8K27ZtAx6WLFnS2tra3d0dEBAAuoyNjcvKyoBSbOIJT21tbUpKyuzZs5kwUjl+/HjyeFFbW5ucNyLpASFkbGwcFhYmk1HSNjQ09NSpUx0dHbggJSUlmzZtcnFxIWFYdnFxwch/jIfHjh2LQViwtrbGJ4/B+gDGaCF4eHjI3LulN9044S5evCgIAr2NzzERu8zMzOhxkNjl6+u7cePGVatWgZPiQ/qUAwgPD5c/KuY7BAcH/n5e6W2gwMBA8pBVZ2fnkJ9s8GOLvfzVcPKmEwSBPs4jFWL//v2ibUNDA30MTMpK/P7iypUrzE11jtWTdDk5OWVkZODjsV5eXk/izd7enl6u/5vX7777Dnt/8cUXxXsfVLmtre3555/HME2FhQsX8g+5gXBiE+yoM4MeOnSItC0uLqaXyZiG1tbWeKEDrPsz8aTSzc1t06ZNmZmZpaWl+I343nvvkRgg29vbMxcumAdygS3dNDMz2717N3nhWP6bV0EQfvnlF5VKBWqEoaJQX18/depUOgZHo1QqV69eTX+6BDxLNZuamjhDdHNzc+Yee2Vlpb29PSerwX0hPz8/zIcgCL29vfQCBfBgamoaGhqal5dH7zt1dHTQr3zSfMuWLVLXKAhCcnKyoaEhiefIg0t+KpWKuUInhvgHr5yooCshIYE/xx03btzgwt7mzZtlLpYC/6DZ2toKNnHFa46Kiurp6QFg3Ozt7QXHAXClAgMD8bgB40Vh69at9OogQsjf35+zSZ6SksK5+cS4HHMxdEdHR1xcHL2Pi9O2tbUNCgr64Ycf6LsKXIWWvIpeurq6jh8/rvrrb+fOnVlZWYWFhfK3skE2/GZtbe3gfr5KpUpKSiorKwMzcSlbtVpdVlaWnp7+5ZdfqlSqI0eOyEnv0qVLaWlpg0+YSqVKTk6ur6+X8l9XV0cfAMZMkMJgnaScAH1jY2NOTk5qaurg+rZKpYqPjz979qyctLGfJ+IVe/nPCnFxcSRzpOzj4wO2IvBe1r9QLh2vWha5vb3d1dWVJBLLlpaW4tkBsPI85JqzlqmwzHS8sqoylK6mpgbsK2NSB3/tsTXYjnzllVdw19MWdLxqXOHGxkbmqv3MmTNv3LhBujt48CDmGyHEPGpJ4odR1vGqWTEfPHgwefJkki1R9vb2pseoYL2d+cGZZuFlo3W8yi7Vn0B6/2Pw3/xcu3Yt0wtYeQ0ICGDCnoZSx6sGVU1MTKSfVLyjQDsCuyBaHHugfcrU6HiVWSjh7t274F8PRAjFxsZK2be0tICbID8/Xwo87Hodr3JLunr1asAT2MoGjuiHm7M0BmyfvKnjVVYN6d0eJycnviU41e3q6srHD2+vjldZ9aS/I2Lud2Ff4BsFhFBSUhLu/RcEHa+yigz2Cm1tbTlm/f394J8aVCqV5PEdju1wdel4lVVJcOguKCiIY0ZvIg15fJPjTbsuHa+y6gZGTB999JGUGfhUFyE0bty4f/lh/cf5JqlEdfpHjx4BXr28vJhlKS4uBsjBE3ppaWlM8FNV6p5XWeWl2QJLweK3JPTZ4H9zjYm8Eh2vZDUkZUdHR0CtjY3Njz/+KBoUFhZ6eHgAAELI0dHx0aNHkk6fZoeOV1nVpf9VQpFFa2trqbPBL7300u3bt2V5fwogHa+yilpXV0c/jhzNnDlzhvxeXVZgbUE6XuVWjv7yQIpXmZ+Uyw2sFU7HqwZlk/rUBRPMPKKtQYDhg+p4Hb5aPkuedLw+S2wMXy46Xoevls+SJx2vzxIbw5fL/wAl/giYXyy7hQAAAABJRU5ErkJggg==;" parent="1" vertex="1">
          <mxGeometry x="2989" y="1804" width="82.63" height="40" as="geometry" />
        </mxCell>
        <mxCell id="fLMCegYD0Tb1E4QCByGs-28" value="" style="shape=image;verticalLabelPosition=bottom;labelBackgroundColor=default;verticalAlign=top;aspect=fixed;imageAspect=0;image=data:image/png,iVBORw0KGgoAAAANSUhEUgAAAiAAAABCCAYAAABuKm1kAAAAAXNSR0IArs4c6QAAAARnQU1BAACxjwv8YQUAAAAJcEhZcwAADsMAAA7DAcdvqGQAAAASdEVYdFNvZnR3YXJlAEdyZWVuc2hvdF5VCAUAAElVSURBVHhe7b35txVVtu+Zf0L9WDWq3hj1amTdV/deb97MvGlzM+37vhcVsQMVsUNRRAVBWun79qCAPaigSHdQAVPNm/ZdqpD5/pio+ZlrzR0r1l7R7Oacs/X5wxyf+EasFfuczWF/554xY8WvPn7xf2Yf75B4wTPWwo8S/GiA+WGCH3bC7Q3I2D7xzwn+uSP+ow+USOp2fhBzW84Pyihjx5rHKnhsJPl8AzK2hEcTPDqq/HuJTvNIgke2SShjneBzDcjYPvH9BN8fYL63tZ3vxZSxST0GfLeC7ypPeMa6F0qYHvK6ioyNeDjBwwPM4QoOV3FLAzI2pXvkr0gyMD2IgZtWM/cxaBqTDPej2bZo02LUuu2Z1EF0rv9Roh0xuXA/mnOooZdqi1g70+yrFlPQbU9MLtyPVhP3MWgakwv3h5pA23ZftBixbnsmdRBl2ngkodm2aNdi7Ent2ExbxNqZcJXG9ML9aLYtMErd9kzqIEZaY3bhfjTbFmOuxXh12xMjDverYQcx8vpEiXaMNSYX7kdzTjR0Oo+OtZiVbnsmdRB1etjT9qPZthg0fcjT9qc02xaHIqNP6iBGWh/0tP1otom8ApKifNsPKyKYfYEc9zqsQLRoMcbHSTJiaiXDwnRMC0kCkrRxaLZjWnR4nKRD6Y9rcpKiRe1xSSRS3FGyP3lconA8D01oQooJa+VDdGVFxMJ0zBE6TpKg9Mc1eUjRot/HxfSTOiTHfJAkxCQpaoXpmKN2XBKRYD9JhnKbp2mSkJBUM1L7lRaixYRblY+QNg7NdkyLhscx+wL9cTTbbbQY4+OYfkytfMi4ygqIxSgf14QH+uOarKRo0XZcEofCca9jUt1I7RcTbtcSITnmA5OPSZLUCtMxx+j4sNEfR2vlIqZF3XEShxRtHJrtmBYVx30F5B9q2oNKTC2mM2hP+dCuJabcmH8v0c34QYKca8woH9JVPAblg17pNWY9qDxaQTXoXikf2rXEbDskZpbmCRnTKzHLlO6d7yfoDNpTPrRrKR/0o8X3EsS0x4zyIV1FTI3qR0jMun88XqK742El5pZrzt03DjWgmFdTDieIWQ8qD1VwGG5pQDH5pB5BHmzxxzZNtSPF9h6QgJh9TK0qDChJNspYqFjElCShloxN6T6QikVMV2kwUllI6V4okdT1xOxjJiscA0KShpjHRpOSFNSSsZ4kETHDCsPIs1jRyHWaJBllLFQ0yigmXEvG9pmYfxm1ujCgxPRjlvaADACpXMR0FQjjiT5QwrSYbltFIyZjU1qI2cdMVRoGhcMJFioUdZRkoJaM7RNJPoytHhA1cR+DpjHJcH9Ks21hRh4bfEEH0bl2lZF2XaykdNYDkseoazEJ3fbE9ML9aDVzH4OmMbtwP5pti561GLFueyZ1EHW6+54Px+60Rayd6VZpTC7cj2bbok2LCei2Z1IH0W+NyYX7Q02gbXtMtBivbnuaNmLMHFMtocYdRP+1q4y062IlpUxjeuF+NNsufukB6VX/nHo+CCojtl3eAyLf9H9OlRCtXHRLSRJqydguqQlOCV2FolNK4pDUvVAioiYyvuJRWgkxytixJslCGbUSMVqUJKCWjPUkaYhJkjQ4lMQkIElGzPJeD6OEaTHh0ayIYPoxSaoGlZrQhCQZqKOMHStqwlNCV8GooyQKSd2QYsJ5BSTWnoyNiNmXkSRpUDmcoFYymlISg1oytg+MekCciQ+axtwcc80xtFI+tB0rNGaMVtZp6+mItY2r1vReOOaaY2jHUdbyoe2Y1vRWuB6QXHMM7ThYml4Nx1xzDO3Yo5YPbccKjfmildUaU3Ns14xxvRZuf/famWe7ht1pzM2xXTMWrZQPcccKLduqlSOr6b1wzDXH0I6jrOVD2zGtMTWrdBR7QNyY3rX1cMTaxnWm6dXgd8DcTHMM7dijHvJaTKpUy7ZqZbWmt8Ix1xxDOw6Wzns+cs0xq3xoz4WyQst2Uiv7q/NeD9PWA5JrxlrlI9TJHhBM/udS+TBqpaKMkiTUkrEp3QfmiVJOV3kooyQKSd0LJRoS04/5Sw9IBSUpqCVjPUkiYpIcjR0l8aggSUbMygpHQUuICdeSsX0ipl9GkqpBpSY0UEw/5iBVPGJq4hPRVSiMkhgkdSeUMC2m21bhiMnYlBZi+jFJjgaVwwlqpaIpSRTqyNg+URMXz598DwiBtm3VYsy67ZnUQfSuXaUj7gExYnqx5hxq6C1tEWtnmiOqxRR02xPTC/ej1cx9DJrG9ML9aLYtetZixLrtmdRB1Onue0Bi7didtoi1M+NQY3LhfjTbFm1aTEC3PZM6iH5rTC7cj2bbYsy1GK1ue2K84X7VEmrgEmjbHh3tKhvt2ioiRWJ6sWbbxS89IL3q/3V7QHxg9jGPbjuebV90MJtx7/Lsikvuyk497fLsf/s/f92K//br32ZnnnFdNvHmGdnyGS9l+zZ8Kub7j0LFohWmY3Z5nCRD6Y9r8pGiRd1xSQqStHFotmNa1BzXhCaiViYsTMcsPS6JQ+G41zF3lOxPHpfw1AQG6nFn+sZCJUTGVVZELEbpOMlCgf64JhMpWvT7uJh+UofkmA+ShJgkSa0wHXPUjktiEpAkQ7kt1+0VEXc8WSERE861hOmQHLMwHbPhcUw/JklVK0zHHKPjmtBAfxzTb6uAQBlXWRGxGOHjmuBE1EqFhemYreOSKBSOe031onA8oh0XE26nhI1Ds+2JySvZF2oh+1q0iPeP0fHhmP44WisZMS3i/ZIYJHVIjlmYjtng+K8w7bznop57Vv8lu//2udk//eufCglHk7jgvPHZ+qdflw/YE5Wvg5nFfG35B9nv/uOC5HnZ/6ocxyCdgQcVh1gnWdbT0RnpvciJueWac48Z5UO7ivRYtNYB8cS0U5z78JbkvwFx49UPZu9u+Vvl/G54eMt32U1y7tRrdhKnSJJ89lnjsjtunJHNe3go27XyIzFN19/gjL2CmG5KNyCmViSv6bSj6V6IefaH4XofRjVmo3x411I+2PvNg5u+zcZdVf53MO6qB7JDm74Tk7MejAGhfGiHxMzaiLkKMe/+03o4eiFm5rSjaUdeq2sONaCYVbekxyImpt2U90x4Jvn3RnCs6XmasnT9D+OWBhSTHy3mPR+5dpWOejbuATm4+evsrpufzP6P/+ffkv8QnQSJyAuLD+t5UxWMFOsSEI6TbDAeFioUdZQkoZaM7ROpVMR0lYYyUmHolRJJXU+SAOO8R8oTEJKEd7f+TceFlYdeSVLTjwQkFX/801XZose2yzehHzS5OCav1zMlKaglY0tIUhHTVRjq+da6z7P7bpuXvbzsWKPxjlbBiHUzknTELFQ0CjpBMeFayliSi+oE5MHs0ObvWuPLiOnHTFUaBoWYfsy2ioeMHRRSqYiplYYWT5ToXihhFBOu4mExvuVP7swenrRU52DyZaSCUJeA2LjR5nAFCxWMmGL+tWRsSveBJB/GRj0g2xcdyv7zj1cl/wG6DS7RPPPQxuwD+Q9U9/qYZpMKSGzwBR1E79pVStq1I6YZ7kdzDjX0lraItTPdEdViCrrticmF+9Fq/j5CXVUB0QREKyDl87vRh0cwAbE4/9zx2baFw/ramCi0wJh12zOpgyjTxvoeEDHypHZM6QMbvskembQk+7/k/9Vv5f/DS0tIQMLxeXSqMb1wP5ptC4xStz2TOohudaMERCsgxXloti3GXIvx6rYnRhzuV+MOYuS1q5RQzWiiMblwP5ptF4Pb8zEsicemufuyc8+5Wf9eLHngOLSIdX0FpDi+V53q+TBNDGoPiLG9ByTv+SByXXIXjBFDXTPz1a4utzQJqikz7l2hSUi/KyAxtZLRlJIU1JKxfaImOBFdpaIpJXFI6l4okdCNKyC+YlLZA9KQI1kBCeP/lb/zFU++qiarlQp5/b5QkoBaMtaTpCGmqzi0c1jemzkPbc7+9d/Pav0emoAs7aQC0iklEQk0SUYZCz0flZQwigmnqAlIxd9B0wqIEbMvI0nWoBLTj/nTrojUURKIHnh4y/HspWUfZFddOrnw9zJZkodWZYSxnph9yEGtgBiHE9TKRVNKMlBLxvaJmph4Rj0gzuxNb5yzZ8SSDwuSkIXTthZeH7NzzDUVjroKCAbsDNwqEAmtrNOud6Nd27iiptfCMdTOPDlH3pPhTHzUtXx4OxY15uYoWrZVK60Hw80JdWc9IO3zu9H96gFpEiQha2a+7kxWDJafQRMSzDalldUaU3M0TW+F046m3Ws20XwbXfnUzuwPp1za9ju4CshRPx5Tdb0cTXXe+5FrjqGV8qHtWKFlW7WyP/pg4wqI77nw5xhzLf9Wjk5jao655hjasd/aejlsf2eaXg1+B8ytXcPjOhbt2KEe8lpMqVTLtmplc/36yr9mt4+bkf3vidaBvAJiPRhuTqzrKyDV8zvVee9HrjlmlQ/tvVBWaNlWrRxZTS+HY645ZpWOKl3aA/LasqPZqaddlnzTw6Cfg7tc9m/8QszMVTKoaLyz/rNskSQW5559Y3JeGLzOrpUf6OtaxSPmLz0gKd0LJZK6nSQBxp9bD0gqnIEf0WTjmLx+x5QkoZaMjUhyUcaw4gA3znk7+bMTvVdAJPFI6jRJOmJWVjhiignXUsb+0gOS8+dV8ZDEoWdKmBYTRu/f+G12w1UPJP9WCK2AyBxMvowkSYNaARlOUCsWdRTzryVjU7oHknTETPaADG/+Nrv28nuTb7gFpr921utiUvJtP5of6qPP/5jNk2/NdZWUeyc8Ld++7e6Y4vkwyZ9fD0is8xhxLaag256YXLgfrebvI9SD2ANC5YUxzCMwQdsmDoopvb3u82yTmPZd42dplSN1njAuu+jObN+GL935xIj1XJ5JHUSsUz0fpon2HpBYi7HrtiO6NgEp7QGJtTPhlDZierFm2wKj1G3PpA6iW/1LD8hIaVfZaNeOscbswv1ozomGTlvE2pllpRZz0m3PpA6iTGsCcmV5ApJXQNwci7HWqR4Qti0GrQckte5HrNm2CHtCkhWQ+Y8MJf/BLM49e5yrWMjYsopF65jXm56pvpxz0u/OyV5Z+n7p/K56QPx8TUZStIj3S1KQ1CE5ZmE6ZsPjmuBE1MqEhemYreOSOBSOe00Vo3A8YuVxi0ALO+oBkfH9WAekrgKirzuUqLz4IEkISWIxafzM2ju6SLa0YiHzkrSoOy6mn6SNQ7PtSZKgZJ/XbIdsVAHx50jNbx3r6rgkIsFxkoyYWvmgehHqmIXjEkYx4ZTuuAfEwrQnJq/0x1tayL4WLeL9Y3RcExkoph7rZEXEwnTMUTquCU9ErVRYmI7ZOi4JRYpUPSqO799EBaT876W2B4R9XrPdRosxPj7sdUitXFiYjmkhiUCSNg7NdkyLDo+TeCgl2tYBObTpq+ySC25L/oMRWm1YeqQ1vimpDsx8YG3ynBZP3bdGx2N2MZv1gMjrMB5ixo1pPR3dkZ4L1/ORa849ZpQP6yrSY2G9HqYx7SYci3VAhmt6QKwCkj/TpZ70FTxw58Lk+SzOOvP6bM/aT9VwSQ6aEjMr8kRLY+Ku56I3bpzzVvJnJvIeEMZjrs0YrvtRoLxXzqArKB/4Sd1H/mTWAZEP7Spiarbux8is/1HW09Ed856PnJy7bxxqQDGrpqSnAu7b+E3DCoj1YIwNw/U+jMMhtzSgmPpokQpGkdYD0r7ORx1/ZT0fxhVPvJT8x7KYPnm5mq1VJjrhO+s+y84+6/rkeYlrLpssfzjfJec3rYAUKhdllCTBeGTb8ey5+Qey+2+fl513zvjsn07KqzRUbM47d3x2/23zsi1z387eH/renYP5XZAKRRldpaGMYSWiW0pE+ti2E9krkkxOvXOR9upwazS/N6S3h4Rw7/rPNAlgPKytgKQqET2y0woISUbMYwkOb/6bmlbqnBbPTt9ROr9FSQpCvr3ms2zp4y9md944Q5OY+JIPt8qecfp1eplz5v3rsl0rbEE0mS/nhFpdqGB/e0B8RUP0AfnQXvnka9nkW+fI/4ebC3fXEFSN/vNPV2WXXzIpe/SeZdmLi98XkzgeVCxIkKDpBMWEa8nYiN32gGD6ZQwrDCG5bLf8ideya+TfKHwPfveHi7Ibr5maLZf3iKbYsvlNSdLy6rKPsofvWqqfP/xt8Dq8z2eccX12761zs20L35VxLhlgHuxnD8i7YnQ7nn1f18U4/7xb5O/1j63fl9/9wvNv1WM7Frl/69rztfGEr0xICA9u/j7bOHeffOYuzC6Qc/Oe2usRNIye9sersqvFD56Ysk5+tiOtZCWvcLjqhGox4VYlI2AvPSBaXRhBkny8vuqv2ZypW/T3PPnUYr8lmv2zH9qifx+WrDB/OMFCxaKOYv4pHtrM3UIfZvfdtjA7/fTrW427/E1y6/JDE5fI58qHOk7PxbwGJNmISfUD+gqIM/mjzx/Pbh83vfBGhEGz6JsrP26Nt2iqSVwevWuJLtvO8u0P3TFfPqh3ZM8v3J/t3/CFvj7jMMlwHrpJBSQ2+oIOAn1gw1fZtEmLO7rLh7HM2b/hS38uV0HB5Nx505qS/7lnlTfjbn7mbR1rwfyUppcmNZ/g/PxcyfliCrrtid6xaDi7+PzySpcFH4QTb3pSfoevdN5PsQekSg/N35/99/9xcvK8BOcmUdHxYtA6HwZhetfyj7PrrphSe2knFaxD8tz8gy3T1OTAB5qf4cYK860Lq4qQbLjz54F+a+1n2aSbZ7YMsJP4w8mXZque2iXf5iURkXNhrLCQAATRre6kB4Q5Fui31n6RnX3muNJ5mkzIuENbvldTiBOvVPzm9+dnc6cOyYfq8bbXK2gxXt32xIghxnKVmEzq3HGQnGyZd0DNdfea6t9lP+8B5u9DE4GC9pURORfntHUxmgTrQbGIF0mLnQcTZNuiTO/b8G326N3Ls39p8N7GQUKy/ImdYsI/qhFrkuEj1Otm7UnObxrurhZ3Tou6JtR4fJVmLZI1s3ZnF55X/9kbxgUynnmHfPWAc8YGX9A+Zj2wOXk+Yo28V4xh/EtLPsyuvKT+b5Gk5OrL7s1eISnyr9G858Pugsl1oQdkz+qP5Q/syuQLE3ePnykG5hpFUxWOkWSnPSBlFZAPdvw9e/ax7dlJv+38P4HFSfIfaPXM19TQ9dySZFSRZKfqbiBNQGRce+WjSJYPT80nOL8mIDpeEo0SHtv+d+3xsWpH0zjn7HGS5B0byLtg4gqIkWQhJhWKkKyjUdVwfep/Xpm9vvKjtnkhMfGVT73ayLSqgsRl+j0r5EP9hJ5bExtPfs7eExDfF0JiE5DE57SK//dNY6IkMIckUdLkQ85bTQnTYsZNKiLdVkDg2+u+yM6pSkC0UflLrW6kxlTFPbfM0fmaZMjr1ZF/3+VPdv73QnI468EN2RurPtFHCqTG8Lsc8EmYJhwlZAzVlW6SZeK2cTMkqfsyef72Csjfs1eWf9Sx6abiTvkbI5HJKyFFrptdfmmySVAVIVHQxElI8lSXgNi4OlLxuEa+oKTO0zTGXT1VE1DON+zPm6JVPGY9VJ2AcJlnyeOvdJwUnnzKZdnGOfvda0ky0QlJPoyFHhAuM1T9QS6c9pyOy3s7XHLQb533fuS6WQ+IOwdGi/mrVjr9/nM/ZlPvfLbr/3RhcI7HJ6+Qb75/F3Oz3g/3OnlPBhUHKiBf1FRA3grGw3B+rquqD5yfSouOlw9tRz/fa35Wko9uf/9TTr2sskLW3gPifoZedfMeEDcn7/VopmdMWZ08r8X62bsLlQ4SjlCve/rNRnfWNAn+bZ6Rf2czT16DHg13uai3BOTFVgXE9XZwfi6h8O+amtNN0FfDt1R+fgzX0Xo5etO9rANSXQF5INu54qPsykvvSR5vErPlgx7T0tdr0b9+oNmeP2174TJHJ8HfxwN3LNLLM6njvAf7N32jr2WVj7ynw1Us9m34Jht/7bTk/E7ikgvvEFP9REzPVUMwP8ei3iXGe8F5E5Ln6CbGXf1Qtm/9t2rsrgLiej7Q/amAWI+GO2d9BaQ4PqWfX/iufplJnaPTOPPMG7Lti48GRm49GqKVua6rgMx7ZHv26y7/Fs85++Zs18q/ai8Hr2WVjU50oQdk7tRNyRci/vv/d3K2feHB2krFSLHXHhBM7aGJi5Lzuw0+DB6etFiNXV9Lko0Ue6+AuApG5SWY2grIP7INc3b3zShTUVaJ6JUj1QNi5Pbc1HktnpiypnT+7jV/1X6O1Lxug4TgNe0LcUkSHIkKCMu3c505Nb7b4HLW5nn7XOWCJEdex9G0hJhxLRkbsZceECogZQnIZRdPanwppCwwFy6p1FVAnl80nP3rb89JnqMfwXtQVQHBDO+/o7r5upOgYrR/g3u9VOXj4Jbvs1tveDw5t9vgMsDsqVvE3CXx4HXEhK33Y93s3hIQq4CQPBl7rYBsW/ieVgxS87sN/t62LaI3xiUhVvGIWVUBuXv8nK6TD4upk5bW9oSQbMRs6wGhn2HKbXOSL0KcJr/w7tUfazLAeE0OfPRbY5rhfnSvPSALH9la+c2fyyqPT16evbPuUzUyLq+QOMx+cKMeS80hOOcCOTevhdFDTM80rz0IPSB7132WXVjzLYQ+BFa/pZrAHIx/g2j2p8bHoYmAzMGYNRnw0aseyR4QgoZNDDp1bmLyhDlaMaDaofMhJi4ffo/evSw5h+CcSx9/Kdu38etWxeTw5r/JB8fhWuNfMv1FlyhIYKIj0QOy+LEXSv9P8A39qfvXy9/NF2ImJ3TO4aEf9CF3rCxZ9X/p4UlL2hIA3fbRrR6pHpA4SEaeXzgsH6A/6Py313+pv1Ndf8ych7a0Xq/w+mLEcN+6r2sTHXo99Fr/5h90Hua+ePrL2meTGh8H70FVD8iiR19IrgpqQXVhx+Ij8rtTVTiul3vuv2NR5e/++JTV8rfhqh68Fqbotk9kQ/MP9mxyqfjTn67Ndq74iyYdGL0mIRKD1gPyxqpPtX8jNdfi0osn6r/5gU3f65x9wq3zD2VXRkvHx8F5X5fzm7EXDN9HVQUkjH/5zVnyRWt99sbqz7ODklAc2PSjfPa/U9sfdNaZN2a7Vn2mr2WvW7XuR1EHPSBHn/s+u/ma8v/cfMM+sPGrYmXCwnTMPh7vqgfEx5ur/lL5ML3zz705e1OSK01YmGP053lrzSfZRRfcmpxLcG5eQ+cxx+ij6wqIhdf1PSBf+fGSeOhcT9GzHlifnGdx07VTxeS+DebncUj2czw1LwxNQMIeEAvTMRse77oC4ue3tJB9LfpgkTLuVkmdm9AER84fz+cW3bJ5zvCPuPGSRMSkolF1B86U2+a2EiWrWITsdR0QejXKel+oYqyZ9UYwXxKWYP57W4/rE3dTcwlNBOT302qGjNdkpI0WosWc2yog0MahZbvjCoiF6KoeEAuSqifvWyf/1sczrVhYyHySsGfkW3dV4jXh+sfEAFzSEs+Hz1YkfMQt103T6kU8n4Rmz9rPGl0i4j1oVUAsSD6EJBNnlvy98nNxxwkVEhsfzl/79O7SnhWr/ti8VgVEYvq95Zc3SQiXznjF9zSQwLg5rN/BXTJ1ydoTU9a2ej8KFBO289SuAyJzMP2YWsHw0W0FhPdy6l1Lk/MIEsEZ8jsc3Pxjyfwfs1kPbqpMGDk/Ru7GS4SUqKqAWHAp5eVlH7qkhXlGOc9O+Zs5/9zyL67/t3xWlPaCWHhN0lGgRKsH5PCWb7LLLroj+SIEx4a3fK3JQN6z0R9icjEx7hblQ7u2ArLMrwOCWQekkvHYPeXfUk899bLslSXv+/GulyNFkpAzzrg2eQ7ioTsXyAf0j/qaeQ+HY/MekOK8mPU9ICyHL+PlQzvkwU1fZZddWP5ve+H5E7K3xUzz3ot2cpxxqfkW7T0g/WHf1wGRD/WQfMs/p+Lf59ILb5fk+2s3HhP2XPXUzuR4gsoIvQuMcz0X7Vw8/YXkXIJqB4lfPh4zzef3ug7I9kXD2T//5szk/NvGTZcPiO+z1jNgfAUk5ND8A/rhk5qPsby99gs3XoygX2yyDgh9InkPSM4mFRCaMkk+UvMht3VyW25qLsG3Raolec+HI6Z2YMN3lVUvGjTfXP2pmjjjU9y58i/Z6aeXfwYRvD95D4j1fjhi2Kk5BJdJDkjyxjiSAX52R6ephsx6cGNyLsG5894PxwOS5N4iSVlqPHe1vLb8Izdezt1GMScqOffdNj85n+D9dL0gbjyGH7Jf64DUV0DS815a+ufKvo8pty/Q5KNqHRCSi+mTy5O4f//9Bdnzi95Xk897P3LWVUB0/oJ3S+fDZU/srEyCnn5oi4wNezuas9UDgklVfUunOnJk6/fFCsUosq4CopdgZFxYuYCsY1G19sj8aUOaZBQqH5BzRFz2+Iul32C4RfmNFe4W5XgelYnOKiBWuSjqbntAnl9wQHt4UvP4fXRJfUn23HgSl3ayoumzj+1InsMirkT0i3UVEE18fIWC8SGPNeA7YhpVCQjH3pH3Np6HmR/Y/HX20uIjul7IFDEwKmV86Ly45L1CxUPnRNwqJl52CzC/E5ddwspDyH6sA4JZ02uybMbL2YN3Lsouv3hS9h+nXJKtnrnLj7PKR5EkIbtWfiS/5xXJ1z/nLElA1n+h45KVjRQZm9IBR6oHhKAvY/uz70rS5caXkcsNqfkE539LXic17wVJCPl3Sc3j/yDrith4TD+mrfdB70PqHBaFCgjzPN/Z8E1pBUW/xc7dVxif4u41n8tnafr/ySUX3C7/5l/puLyS8V1pBYJKDAlXsoIRcOfK/9Jv6AR3WfH7r3t6T/b66k/EvL+XcTJWzLqbdUBIHlzCQ9JUzroEpGzejHvLE77zz73FN/C2z4u5W5JnGn5T5yEevPPZVtJSqIAI6yogE8fPks+BH9wcSQpSfG35f2V//NM1yfkESU5qHklGGdt6QLi80igB8eM1OfDRb41phvvRHfeA+Fj+ePnCamfLf4K9az8rjCfatauoHNz4pf5HS52LIEFgHOanyYPnWPeAzH/kueQc4pyzb5Ik7Qtn9j4wx5Tes+aTym9gmoBoBSQ9v1vN5YomFRDmEZikbTfRe9c1SEBkjCYOmLdnmW767BeaQstMidekMuPG07PBHEd0/bNgXL9HPj+PMm3E9GLNtgVGWXVJg9d/cfFRlwBIMN62e9Ej2QNylZjzPjFpGx/Pt+0VT5ZXvfi9X5Dfu22+GPKzj72YnEOcecb1enlEjR7z9kxpLnWcclo68SN4D1I9IDuePZr9e8nf2sXymbaX5EFMy413NI0JKsXk7r5ldvIc//xvZ2ZbFxxyhi4BSRDKKiAEj8cnMWNtDMZr4sB8z4IOok4Pe+7r07Ng6hKQ1Py35POC9zU1hyA5sfGYsc0zzbYFmrtVUuch6MN4Y7Xrw9Dx0EddBWTpjJ2F8USs31r7dXbFJeWX/+6+Rd4DP4+o6vmI9c+mApK6C+aDbSeyu8bPTM4hHrh9vn7D10SDeVXknMJH7y6/pnf7DdPlA/p4YTwcy3VASEbuvbW8uZj355j8zGEFJCZJAHxv6Pvs5useTp6HGKsKSPy6JBUxj1Ww2wpIKcX0y3hU/iZfX/GRfACtkm8V5X1JLgH5UpMlTT4i9ncl1DpKIiI8It8q96z9RG8TrmpM1gREXl8TFuYpJZJaQky6ljJ2JCsg90yYrYZLsqWJQwk31Fz6wlBT8+6/o/xSQlvviKcmMlDM38h6I3XvQaoCUpUA8fqHtrim13heTFbmTJ2DeGbqVh2nCZNnVQ+IBWtQ3HHTU9myGa/pt329pKLzJZHohmLCeQWk/L1quhJqNxUQkjGSstQcLntsZ3XXxLwyvrLsw9LE01WwfB+GjA9ZVQH5t9+dn2171l2+0fEhOYcn665cf2VFIkcCEoyPSbIRM6qAsARztUlyTJtQ/XhHlxz0qjE3x1xzDK2UD+9mPSAyHrOW8fDQ5m8qex8WTHvOj7deD+sdKddrZ76ePBdx3rk363uU9244Ex/LdUDeE2OmQpCaQ8x5aJMYp/VcuDlV+sE7FiTPQ+ilEK1END9flcb0YN/XAZEPc0en63pAuKRABUTHY8rMV6Y1pufIs5W+y55bcDB76r51uoJg09ug+XkwTc7pejfceU036wGxSob1fqR1/uyXXHMMs2OdEJovb7pmauOFszQBWeyMmCQg7+XoTTdZB6TYA+LO0aQH5H75MhKOj+eb3lCx0BUVBq2AyIe4jhcDhiQEN15d3sTNNX7GWqUDE6zSVX0RvAepdUCmTlySHE9gxOHr5D0guVZjllgz683kOQjM2I3Lx29b9G7Htx1z1wzVEaoEOxYdkb/DHzSpwIgdXY+HaXouHIu6eQXEejfcOWNdl4Ck5i98tLy/i6rzHvl7tPF570euOWaVECoFb6+rrkLMfmjIGTzmLuMdqysgvz/54mzHs8cK4+P5kMt3VQnI3bfM0bFW2ch7POp1qwLS1V0wo8huekDeXvdpdkbFJYMtz7xdW/GIuW3hwdJ+ij+cckm2a8Wf2+aNZQ8I5l3V/MbKpm68S3bCikdIe6rt3AF8FowmPlEPyLEO2HMFRJICI5eLWJhs0s1PZb+PnnHRSYxuBUQSD+G78i18y/z92svyp4prvnXhKiAuAeqkwpHUAUeyAsLy64wLKxApvrj4iC7BnjpHWQWE5tnrr7w/OYfQ23eD8Zh+zPDZL1VVCN6DVAVksvybpsb3M1il8+Dmv0nyIcmMvC7ETO+r+NLSJLglnEs5m+VbviU32uuhlNcRkx60HpDHKhpHSYr2yd9Eal6Kw8IDXM66rvxy1hRJShnXSQXkLPn/8MaazzXJ0DklZJ2Pu0ouvRFlFRCSjJhW+YgqIPXPgTFztfGaHPjot8Y8w/3obnpAqIqUzaEM9pp8SDPOxlu0a3+ZRlh1Tv055DgmqMmD51j2gLCvylx5bYxUzd5HlR6LZ8GMdA/IW2trbsOVD3XW79BEA9P2DDXPgZlw3aNdPUslFTwIjqSHc2Oimix4ovvZA8ItnjyMsdvVOeP4D/lm9TKXYMQcCIzVtnvRI9kDYmt42Ph4vm1T4SjrpdAEJNEDsqfi2S0EzzjRZMGHVS7KdF0CEveAoKvet37FdVfcr6aPaWpy4OOdDd9qcpKa02m0nglD34iYGIFR2zYx7DmWPSBVczBz1lmx8Vb5sPNY5cPCdO3PERq+j6oKiCYgqz8vjCdSmiQjdQ6CHhDGWHT2LBj5xo/JQ24lTb0AQaf2c/P3FSsTFqZj9vF4Nz0gmrT8oWSO7NekhfEkFyna+dBsCztJhCxGbx2QqAKyQxIQLq1VJSBzffIjY1vzTPsgCTB29DRcC9MxGx7vugfEz9dEI0UfmCXmkTo3cdsN08VUfkzO53IFi9X1K/GwIKki8XIVCpc0hWxUAWFsyXxIIrKii2eS1IW7C+ZLV83wr6PbykBbiEknaePQst1xBcQHSUBXFRCLYH/V3SyagIQVEB+a/JQ8u4Xgsk74OprAQD+fJMLYUQXEB3o0EhDeXy4taMIkr0t1Qil638bvsskT5lbeztlJ6DNhJMEo9H4YxYS1AjKG64DUzgnOn5qfOl53zmEZV6iASDSugDA+JOewEF352mU9ID5INmJqBUSi1QMCl88ob1Qi5ov5hOO74ZAYHt/unpqyOntz1cfZB/IfCnPjeEiMu0X5oK81/sQ6IK8sO1Y6hwrIq0uP+vHt636Ukdep+gDiNeP1O0ZtHZD17euAuApI+Ycfd8jkPRj1rPoZ2ntAuiM9GyG5jMS5U69JWAUk7/WoofzNhdw8d2/p7dXEI5OW+EqHjA9IUyZJYdXcbqN8HRDHXtYBsZ6PtfoMm/6vUokRjcQ6IAdGcB0QKiCpeTGrKiDtPSCOevtqxWsveuwFTS4wvybkuTOp8xC8P/E6IOjRSkD4XfMeEM8hR+52oZkSM+vH3919ty+Q/yM/iqm5no+QmPZYrgNSNWfSLU/Le3FcDNiNz3s+POVYilQaUucjSAJ0HOYesFkFpH1eSHo2qisg1gPSvs5HOY8rWxUQKg1aZSipGBBcojm6zT0yv1Cp6ICP3VO8i+SfTvqTPsJ81VOvao+JJSvhPJKQbnpAMP6qNUAKPSDMacCt8/eVGg7L1bdWVJXxVC5gXQ8I64uElQ6ShxQ76wGRELIy6biK689hDwjVAqWYcsyfcw8Ijbip81rwqPnCPEkK4I5Fh7OTfte8wY4qCXePTLtrafbc/APZ8wuGS5NZrYCM2Dogf5e/079mp3fwDBv+5rldlBVauRPk1RUflia2Pa0DUsGmFRBMn/EhWZ+jMgFp2APSUQXEc9+Gb/Q239QcgooG40gWYrZ6P+RcpjvtAeFyxZ03PZUc38/g/bUKiKtIGKMKhRCz3TLvgC7z3u1zUkhiNs3b16p4FCivMZY9IDMf2JAcT3TTA6JrqlRcxnpw4mIdV6iACPvRAwIr34OoAkKSEVMrHgm2ekDg+0PfSzJQ8Wjy0y7L3lzpFtvS5MBHU31o01eV62iQLLyz7jMxPTfHAt3JpQ81fonD8mF0TUUDJk/3ZZyNt8CQ0/ofleuKcMcNd95ggppMeNb1gFBVcGNduPntunEPiJiMzhW+v/X77KZry2+dnXaXfLuXcWr2Pqo041PnITQB0QpI+fxu9Ej2gLy79QddAjt1XsJVE465pMMHRn5Evt3dI99kUnMsMO0rLpmULZ7+YrZ79SdipFQeZK4/R9U6IFRAhuXv142nV4M5jujmPSDOhG3bNHflpOaGcZ4kS7MlOWPtCb5NWyKAsVatA4IRUQHR8RKMt+1edJMExFVA3BwL9Kj2gIjx6njPuh4M7lDRZMFH3PMR6/q7YIo9IJhs1ZypYl5urKuwYHo2L9b8LGi3ndLONDvSYkZcsuM5LlwWOeP06xtfquH3Yj5Jh3HYcyx7QJbNKF8vhkXVSNRsPGZs80yzbYFR72FdkfPLvXPhtBdcAoC5exJj0wNiPR6xdiztAYGza54ZMn3ycjXisgpHFZdXrCRK3DvhaTHOE8n53VRAeloHhHNExNCZkzoXcdfNM/U143l1FRDK+K5yIZGkJBPCByt6dJI9IA3mUdV6/7kfZZxPWqh0xJTfmwrIe1t/1GW6U+chBqkCYjxWQx7DXvU4+lZyE817e3114yq3ZO9c/qEbL0mDzo24fdFhfQhUav5IVkBIbG6oqIrxfgzN36+m7+Y5aiLjuXvNJ6V3yrR6QGRcL+t+xOy4B8STJKBfd8F0UwGBnawDoglPSDF5q4SwXHrde5C6C+aZh7cmxxMsLkYiEI7vhJogRSxWQOooCUNEKiTbFr6rBl/VX0WPB5WOvAIi85VjWwHp5zogw0LGMy91Pl5nSF6PcV1XQBgfknMErHwPogqIkSSjjFEFxHo0/me2Wx/cVr5+vZr90iOt8fH8Mr1v/af60LfUOQkSExoiGa9JgdKdA2Ns1gMi4zFtGe9YvRIqBuJWQrUeD5uX1gdqVkJdyqUUmZP3bjhTr+sBmfPQxsL4eD6axcK4tTM1n3A9IFYBsR4QN5+fKzWHYGXTPWv+qmMxRUfrySjqupVQNRHQSkR6flNNr4aj0817QNw58p6PEi0f5hCDqnqaLcHy8zoe85Zw/Hv2Mt+ES27HZHn1LfPEwP0c13sBqUDkumpRK9cDYhUQ17MRzu9lHZCqh+gRCx/drmMxRMcTbZp1PsqM2CogOl4i7+XoTtN7AeuaKTnW7TogrgckHx/PN91JDwgG63ii0UqojMfUGe/Yrl9Z+mHlJQveg7wHxOYdz7bMLX92z5WX3p29s/6b1nh6N8rWAXFspnmYGpe+SCS4c+WhiYt1SYDTxF9uvWG6/Ht+78ZLstGqYET68Jbj2WP3rEj+3MS5Z9+c7V77uY4fZr7S9VaM5TogTVZCtcpH3gPizqG9F8pcV62EetH5t8v/6S/deMyd+cqmFZB8fDwfUrFo1gNiFQ7r9ajS9IAEFRCrNJAszHqgfA174tyzx2W7Vn5QmFdFLu2Mr1hBk7juynt1XGo+SUg3FRD4xqqP9YFzqXlE61kwzKlh1bNguHxEMsM4TYQC8u286smn9902V5OtuOIRkss4LGCTmk+U9YCgq5px+X1WP7VTx2vCA8WcY/7UngVzrAHXz96dVS0Mhklj1m3zJQnY9Ex1BYI7a7TS4cfrXE+SCMgCX6n5xEhWQEhOypIHguTGjc8rHjE3yOuX/V/4pQeks3m8jzwLBrNnPGz1fhjlHJjrjPvWJM9hwXuQqoBQkeKBd6k5TZ8FQ5J03jnjNWG6/cYZkhiszFY+tUv+1j/M9m74Ss00rGxULX5GsrZ90Xt+vM1Ls6rplufbvLPuaxknY/X1PWXuWFZASEJ4RktqDtHPZ8GQzMSVj44rIMypYOV70K8eEAu+sVd90ydOkSx867y9Ys6uWhHODzWVjxuuvC95Dgv+A66Zuas1D9Nk2wLdTQ8I8YF8+5s8ofxavXsarrsbxgLjjvWbK6srQ4/ds1wMk8pD+7NguIWTZdpT84iLL7hNqytuvDNR2yaoEMx9uPwPiSjrAYH0OUy4vrzP4cLzb9Wn3arhS2COtm16z+q/ZmfUNC1qAqIVkPb53Whjv3tAqAjQWFplwsRcMSWdL8atyYMPNE2kZQ+S++ffnKUNqjbPKiEWaNb4uPTCO5PziboekJcqKjD8XlU9IFx2KnuQHLFCElLmWGCguu15aMv32W3jHk/OJawCouMldH4Q3eqfag8Ihsx7Nv7aiv+DkhzsXv2ZzrXKh4XpHYver23Y5D1I9YBgylQgUnMIVmrdv+FbHY/p2TzT/Azzp5V/C9ck5pl3dI4bf0J1WdWFIHnggXQYrf2MOj/QLAN+3RXlSQSLc+2nkiJjdZ7EsHFLzQJaPnlgvJq9j1jXJSBl859fWL0KbP403OI8q4QQVAoemlj++A/34Ev/KH0favw+fjI9IHHlYWje23qHSuoFw7jy0knyjWm3fPP4Ssza9YawqNmulX/WxY2anONOyaaPbvux/efwQVLRVQXEx4vPVt+twKWh8O6VFn3wKH6ecpqaS5xxxnXyAfdJa54mQNDPR0+reIYMCdj8aVvFbCWB0fGSOOh8MWDZXvf0G5Xf1IlkBcRC9NqnXy/9xkrcdO1U+YD/1r2mmK7e9SLz4D75dlNVwbFoq4BYmI7Z8HgnFZBjMr5FC9GHtnwn/8b/pU+trXqOicVlF92Z7ZOksHA+oyQBr6/CxMsTUhp/qWDoHBkPSR7gAflmVtX4StCjwaUnkidNPiJS4ShLoOgrob9Ex+p4STyC+awNc2nFN6oLz5+glR8uXTGepMN4WJLZB+9YVPm3xJNO96z7zFU3CDHhJElqTLMd08Lrjisgfj66qwqIRbC/owpINJ+kt+p9u/Omma56IWavlQ+ZZxWQV5d/pI/7T80Lg/egVQGx4HzCqgfSETR0HpREycaH819a9oF8ASt/dtHVl98rnxPfFSoXrP3B/tR4iz+cfKne1fPmms/EfH/UeZBv/UtnvFz5b0bMf3S7JhupCghBU2tqHnHHTU/K58IPavphxaFFH3UJSNl8LjVU3X1Eo+2MKWs1CQnnDXsekvdh1oObKhtyp09ZrUZeqHyIufelAmIhuvI98BUQkooC/XxNNlKUiHpAcpJMLJg2MmschIGx713/qb4u5md0Bu4pP0uzHhBXuYiJsU+/Z3lyrsVJ/35W9vjk5dk766gEnNDqwf4NX+giUxxLzSH+SRKDDXPelNei8mEVEOvhyDWLjVW9l//t17+VJGWJJhHH5PWJnZLEkZw1+TfQHhD5efV15fcNSQWFZ8KMv+6R5FwLjHnDnD3ZYTE+kgC+ga944hX51nVpcnwcmghoJcJ6Orpj3gPiWNcD0u84Sb61uAqG7x2BmHfA4U1/y66t+XDlejeXYt5/zt1BQiPk3IeHsj80eD/ds2A+16TBekZCcldN1XLpt497PNsrfw9H5LVJvJZMf9GfD0P5Qb61zErOs+AOmM3z+EZ7XH5+rqd/pY/tr1pTxgIjds+CsV6O/vCnug4IRkg1pO6hXgSXOKgcHOL5JzLv7XVfZk/et77xYnGuAuIqGcx3dOuBYOyP3FXd83TZxZOyNU+/qa9PL8d+SSoWT39JE4XUeIJnt/CI/LwXJCf7OZ6a12vwxe/1lX8Vk3M9IyExc1i1JDrViVUz5XeVJIR+kfVz9mZrZu4uzIf1FZDi+JBcnqr6okJcevHEbM2s3dk++UzBsOHQ/EPZFRW3bhM3XP2QeOe38vNbz0Y7+7MOSLc9IPUsrYBo5UHMa5F8M8ccUy/ca3Bb72vLjpa+fuvnEHbbA2J8b2t9H0qnQWKwQN4fkhV9LUk2UiQJ4WnDfKtOnacfUXUXjOM/sleWHNH3PDW/H9FWAekT6yog/QwqTdp4KslPq+JRwiXTXxixBJ1mX5KMsHIREjPmgV2puakgKeC2X5s/tOBAbVWt2/jn35yZbVs0rNUHvQtGTLiyEgIZm9IBe+kBGeu7YFrzF79fOr8fUaiASNIR8531X3f0d9Mk7rtjoZqtXiqS14GuEiKJuiQ9D9yxKDmvl6AqsPDRHe51xLTbKiCey58svx02FamKRl0CEo+PSZLT7yTs/PMmyBfUT9p6PmL+JHtAQk0Ssu7p10vNv9ugnPfy0vf1NTBJNWwfGLZuBwbepAKi4yV0fhAYMHxvy/fZ3eOrv/k1DZKy+Y8MiRnJt3Q5v5q8jzLNpZSyB9k1CaohV5dkxdoD4u+CwSD1dT1VS6CpcPSy9PaE66aVPkZeExDfi6HJg4+m2ohJhpoekNGogGDIK554VQ1PL5v4wLBTmirITdd0n9Rye+Gv/+U/k8foL9k6/4C+FiZK5cLCdF1VLw5tLpV5mOF78u30gTsXJsc1CRKv/3HS6cljxOLHXnSJgwTGa9vdaEwNUt2oS0AGoQcE49V5nmrMPjDFZ6YOdb10P4tvVfUO8R5YBcTW9bBKiOmdK/+SXSAGlprfadDXwrNeeA0LTDfU++X/SdU6JJ0GyccDty/SSxe8n8MSUA3fa9t+ZdlH4jVXJ8+TCl0kbKNfJMxHXQISvh6R0utnv116G22ncfEFd8gX8r84w8fMPVO6Hz0g9RUQ6wFp7/Eo1y4qKyAh922obyZtEnxw3XXzk/LH83Wj14UkIT1VQEhEPEkYFjzyXHbSb7s3YRrBhubtLa18WAIVkiSL12bRsW6+Nd91yyz59vK5GF76A7jqLpii/oc+0beqobYsWFOFu4rKHm73U66A0Ai8c4Vft0Net5IkIJ5vrfs0u6zCEMqCZ4OwEuqMKeV3NbBYWFkFBL65qrPVTOlBcPNdT8chMYYJ1z+aHFsVGO2qmbuyFU++ljxOcImHdWNqKx9G+Znq+FO+CyYkicDCx7ZrMpE6T1mQ+HD3Uacroaa4e81n2bVXTEmeo0nwGXbvrXP1tcKKh6MkBJHmVtOZ92/o+ZlJzOc89EeElY428jMIuaX38XvLL8PEwWWPveu+LlQweq2AGFnQ78oeqk8kXnfc9FTGo/krKx9i8sbRqICQgDCO5KKMNRWQ9nU7UhoDe23p0ezGqx7o+LIM42+94VGdz7oa4fkxRcdcq3FLOAPvfh2QMs0D4uj5qOrviIOxT0xeqT0SnAdzdLReD0y+TJup8gyO1xv3VTBuzaxdYn78hyo3YtcDYnfBWA+ISzpIfBxzvXfd59nEm55slAxxt8WCh7fKB+gJXWukrA+gvQfE/Qyd6rwHxOmR6gHhd+ey2IbZe8SUXX8FPwMG3ap0xFpZ1HvlPZl4Y7P3kirLw5OWqPlzNwy305bNu+bye/046/2g8gFzzd0wLHqWmh8Ht/26CgjznRnS5/PwpMWNjIExE2+eme1Z86m+Nt/2y8yYRtQ3dfVXjNd6OVwy0a3G7OoSkEFaBwSjh5ghPSBWGUFzjOv89HykzhUGxnPLdY/qbZvMq38WjPWAuJ/BekBiTU/Iiid36bocqXOVxYXn3arLqLvLLpir0Rl/leZZMDde83BlY2UqGM881kEprBsioT+HMtccQ8N98jcx7a7ljf7G+Rt5Qxti8/n1FZDi61VpnoezdvZb2WUXT0yeryzoE9k875CYtqsccK7c4K1ng/MXdWc9IO3zYX0FxHpA3Jy8x8MqHuW6cQUkJkt8c/fLlNvm6F0kcUXh9ydfpN8qH574rD6AjvFNzpsiSUivPSAFSlJgxPyeX7A/myo/Jz9v+HvQYMoHxP23zcueW3BAPgSPu3MwvwE14SkhBkBjKrfHnnLa5a3XxKC4C+HRe5ZlLy85ouNIGkjG3hv6voMKSB0xd74J/Vf25JRV2QXnjW8llRgil1n4FrtV3hu+ydqzYLgz5KdaAeF9xqwn3zonW/XUTk3Yjsn5STJ6oiQDJE1vrPxLNkPfywn679h63VMv17tiVj3JY8T/pskDc+He9V/I+5le30UXNJu/X8eFlY+Yh4d+0OoGTbHh5TV+BtYymSjfmlbK73tgwzel53lr7WfaIHv5JZMK5/j9Hy7SRGjBtOfl7+trHU/yQW8H1YZxFf8ufMsflB6QQaqAhHxPPlO2LXo3mzR+ll6WtmSU6ghrRUyfvCrbufxj/WZP0sBdMVUVkBuvmSpJ2N80WdLxDfiuGOQOSZymT16tTai/k3/z8Jxo9nN85wr5WcT0dJ7NT7BYAWnn3vVfZ8tmvJbdPWG2Lk0eV4P+Rf4GueuH44xjPEmMVVQKlJ8nr4DE2lPGUoG4//aFbUu9n3zqZdmlF03ShlVWHCVJCCsX/aqAxCSh5O9u3NVTJQm8qu1noomd47tWuUbbYT8PVlZAAv7ke0D6qY2YYEF7Y7Zo6ci4CzqIeu0qFbpmSRcaE2Tb9qPZthh1LR/quu0Za8zNej4gWs3cx6BpTC3cj2bbomctBqvbnkkdRJ2mchHux+TYtsi1VSy60Raxdqbaicbswv2hJjBC3fZM6iBGSxsxtVizbTHqWgxUtz1jjcGyrfsl0Gr2PnrVVRUQHnmP2bqxjnUaU2Pb7Xcmx7ZFz1rMRrc9kzqIOj3safvRbFsMmsZsw/1oti3MqGMDL+ggRlpTyQj3W+WCygjsTlsU9a8qKxAWo3ycJEPpj2vykaJFvJ/kIaVDcszCdMyGxy1BamNw3FUejJIY+OMFHXNHyf7kcYmYFjXHMf2Y4TogqtmOaTHKx0kalP64JhMpWvR6XJKAJG0cmu2YPkgiYpIktcJ0zL4dl4QjxW3p/SQdSn9ckxEqE8pAWxSOS4gJJ3VIjlmYjtnwOKYfUysMFqZjjtFxTWigP04SYGytfAplXEuz7UklIpV8EFMn+QfbMd4imt/tcU2EQvrjmkz4/YXKBNWHwvGIlcctRIsJtyoZIW0cmu2YPjD9mCRJrTAdc4yODxv9cXSywmER7xeTT+qQHLMwHbPhcZKKmFrhsDAdU6J0HZCRJCYX0xl2CeVDvpaYe9csexaMIz0cZSSpyHs8UnoUKB/qKXJ5qUUxjrzXYjCZ9360U427X5QP9Vpi4g2J6cUkCchZ1sPRCzHblK5n3gOSk5+tRflQr6UYQ1KPAOnBiImZDwzlQz0kJhdzz5ov9NIcy5hTcmcxN9bX2DR3n64G6po5ixWKMlYtrsUzZ/KeD5tnOk16NMpIUpH3cHTJoQYUM0rqCnJZooyY+aCShtyYwyG3NCAmPkqkYhGTJCJn+/oeTdl1D8hokiQjZqHCUUdJCmrJ2D6xVQEJ6CoV3ZLKRK+USGoSmYhiwq3KRxll7FiRJCHmsdGkmH4tGes1SQK6iq4CMVZ0lY527UiSETOvhJRRwrSYcGklxMjYPhHTjxlWIMaCdT0oxNpZu3U85l+ohEA5B9y78avsiovvSs7nqajPLRwujB8JtlVChK5y0ZQnSnRDignnlZBYezLWE5OPmao8DAqHK1iobDSlmH0tGdsjSSrKWFYJ+V+sByTWxUrILz0gY6MxtXA/mm2LnrUYq257JnUQdfrn0APCtgUGqdueSR3ESGtMLdwfagJt22OixTh129O0EWONe0B42izPPkklDhYsxc7zSxivZu/DNM2isx/cXHoHCc/v2rv+KzVZN7dYOSnTmBvbbr8zO7YtetZiNrrtmdRB1OlhT9uPZtti0DRmG+5Hs21hRh0beUEHMdJ6cHpAxogkGTG1UtGUJA91ZGyfaAlSiq7iUEdJFHqmRFKXUxMbKCYcc5AqHjFJGmIeG0lKElBLxpaQJCImSdLoURKPpE6TpCNmZYWjoCXEhGvJ2D4R048ZVyAGgdx+nUocLLgDhssr7q4Xf5lEvtGTVPC02puufaTyVu8npqzTZEmTiz5SE6ASuspETEkMkroTSpgWE26rcMRkbETMvowkSYPK4QS1UtGUYvK1ZGyfSFIRs6ziEbOjdUD6pTE5x1xzDO0YafmQd6zQmDla2am2no9Yu3H0WjjmmrFox5R25tiuYZ+1fKg7Ok1PhWOgZRvNmLz3YrA0ZufYrhmLduxRixk4VmjMGq2s1pieY645hnaMNb0XKW3jutHOfB2rdbgOiGmOoZXyoe5YoWU7qZX91fRaOOaaY2jHMdbyoe7oNCbnmGuOsSpn3XNBug2epvtm62m67vV4fUefzLT2FzW9Go65Zi7aEe3MsF3DGj3ktZhOqZbtpFYWNb0Uju2aMXnPxWBpTNexXTMWrdzitRh0qcbE0cqR1VQsHHPNsfZ1P2Jt48r1Lz0gRsb2iSQdMV1loltKItEzJZJaTD6mmHBp74dRxo4VSRJiHhtNiunXkrFekySgUyQpGntKIpLQJBdlbK+IxJQwLSb8S0XEce3Tb7atedFrcL41s97U5IGkaKSpiU1EV7loSkkckrohxYTbKRGSsZ6YfEySo0HlcIJaueiWYva1ZGyXJJkoY1zxiDkqPSCYXrgfzbYFRqvbnkkdRL12lYp2bZWPao2phfvRbFuMupYP8aT2xMzC/aol1LAl0LY9SNqIqcWabYuOtRipbnsmdRCd6vIeEMfutEWsnYn2ojG/cD+abQuMUbc9kzqIkdaYWrgfzbbFqGsxSt32jDVGGvd8qFn7CDWmuHTGqz09jykMnlK7Yc5ef36rcDiWaUyNbduPZtuiZy2/o257JnUQdXrY0/aHmkDb9iBpI2Yba7YtMGLd9kzqIEZaW8XD9lvlgsoI7E7nEeqfxzogJA/h/jIdkmMWpmM2PG4JU0itNFiQLIT7Te+w/SWsPG4R6JgW0X5MXhnoZIXDwnTMUTpO0hDzGLQwHbNfxyUpSNLGodn2JIlQsi/UQva1aBHv7/m4JBqF417H3FbUJBsF+uOajFCpiGkhJpykjUOzHdOix+MkATG14mBhOuYYHcf096z9LLvz5pldPxuFqgdrfuzf+J2ej6SpjRY9HtcEKqJWHixILlKkGtH4uETheBBiwknaODTbnpi8kn1es91GizE+Pux1SK1MWJiOaSEmn6SNQ7Md06LD4yQVSn+8pYWFCodFvD84PqrrgGB2ZVTjNsqHei0x877Rej7SpOciJslEkZhjSo8C5UM+JD0VMTH1QSVGGNMZeJ8oH/q1xLwbEpOLifmXM9Wz0Skx15SuZ7jeR0x+pjbKh3otxShGmvRalBEzHzPKh3qKmF2LmHSgMfUUD23+Ids8d3/22D0rdent00+/NpmUnHzq5bpc+LS7l+l45uXnKevxaEZ6NmJyLsdYd8GhBhQzakp6KmJi6oPKcL0P43DILQ2Iaaf0CJAKRUyShpxlPR2d8+d5F0xMSQpqydguSdJRR1epaEoqEyndCyVKiOnHHKSej5gkDTGPjSYlCaglYz1JGmK6ysOgUBKjgCQZMUes5yPWXRCTj5mqPAwKqSIUKCZvbFv/wyhjx5qpSojRVS7KeKJEN6SYbjslQs3YcL9pIaYfU6sPA8rhBAsVjTqKudeSsX0iyUTMyspHwJ9pD0isXaWjPz0gsXYmOKpaPuR12xNTC/ej1ax9DJrG1ML9oSbQtt2VFmPVbc+kDqKpNpb3gLjItWMzbRFrZ6q9aMwt3I9m2wJj1G3PpA5ipDWmFu5Hs20x6lqMU7c9Y42xNu0B6U67yka7zispnWhMjW3bj2bbomct5qLbnkkdRJ0e9rT9oSbQtj1I2ojZmibQtq1ajFi3PZM6iJHSRqt8hJptKiSwO51HqH8eFRCSh5SuImP7RE14IrrKQxklUUjqXijRkJh9zF8qHhWUpKCWjPUkiYhJkjR2lMSjgiQZZUxWOApaQky4loztMzH/MpJkDSox/ZiDWPEwakIU0VUojJIQJHUvlDAtJpxXPErIWE/MPiZJ0qByOEGtVDSlmHwtGdsnklTELKtw1HFU1wHBLB3bNWPRSvlQd6zQmDda2au2ng/bX9T0WjjmmrloR9+DkdRwhLV8yDs6TW+FY645hnYcLE2vhmOuOYZ27FHLh7pjhcas0cpqjck55ppj+boesabnIqVtXDfamW27hkWd93zkmmNox0jLh7pjhZZt1cr+anotHNs1Y/KejDHS8qHuWNQYsKNozDjQjEU7jrS2Ho9Y27iiplfDMdfMRTuinTk6dqiHvBbTKdWyrVpZremtcMw1x9COg6Xz3o9ccwyt3FKixaBLNSaOVvZXU6FwzDXH8nU+Ym09Hba/uf6lB8TI2C6piUwJXYWiU0rikNS9UCKiJjBQTDjmLxWRCorp15KxniQJMUmOBoeSmAQkyYjZ3vMRU8K0mG7jikisuyAmH5NkalCpiUxIMfnS3g+jjB0raiJTQlexqKMkCkndkGK67ZQINWPD/aIx+zKSHA0qhxPUSkZTirnXkrF9IslEzLjSUcYR7QExYoKmCYzVtgvaM6mDaNeuMtGuraLRTBsxNY6Fmm2LUdfyoa7bnrHG1GzdD4hWs/YxaBpTC/ej2bboWYux6rZnUgdRp0em5yPWefSqMbVwP5ptC4xQtz2TOoiR1phZuD/UBNq2x0SLceq2p2kjxjo6PSBWwehGW1ilw5kxRLNt0bEWM9Ftz6QOolM97Gn70WxbDJrGXMP9aLYtMF7d9kzqIEZaU4kI91ulgsoI7E5bxDrsATme/f+5QuysO1p34QAAAABJRU5ErkJggg==;" parent="1" vertex="1">
          <mxGeometry x="2939" y="1760" width="130" height="15.77" as="geometry" />
        </mxCell>
        <mxCell id="fLMCegYD0Tb1E4QCByGs-29" value="Manual Input&lt;div&gt;&lt;br&gt;&lt;/div&gt;" style="rounded=1;whiteSpace=wrap;html=1;fillColor=none;dashed=1;labelPosition=center;verticalLabelPosition=bottom;align=center;verticalAlign=top;" parent="1" vertex="1">
          <mxGeometry x="-1170" y="1807" width="480" height="143.5" as="geometry" />
        </mxCell>
        <mxCell id="fLMCegYD0Tb1E4QCByGs-30" value="&lt;font color=&quot;#000000&quot;&gt;Input Comms&lt;/font&gt;" style="sketch=0;pointerEvents=1;shadow=0;dashed=0;html=1;strokeColor=#006EAF;fillColor=#1ba1e2;labelPosition=center;verticalLabelPosition=bottom;verticalAlign=top;outlineConnect=0;align=center;shape=mxgraph.office.users.csv_file;fontColor=#ffffff;" parent="1" vertex="1">
          <mxGeometry x="-961.4" y="1844" width="59" height="43" as="geometry" />
        </mxCell>
        <mxCell id="fLMCegYD0Tb1E4QCByGs-31" style="edgeStyle=orthogonalEdgeStyle;rounded=0;orthogonalLoop=1;jettySize=auto;html=1;exitX=1;exitY=0.5;exitDx=0;exitDy=0;entryX=-0.049;entryY=0.484;entryDx=0;entryDy=0;entryPerimeter=0;" parent="1" source="fLMCegYD0Tb1E4QCByGs-29" target="fLMCegYD0Tb1E4QCByGs-15" edge="1">
          <mxGeometry relative="1" as="geometry">
            <mxPoint x="-685" y="1878.1399999999999" as="sourcePoint" />
            <mxPoint x="-465" y="1852.3900000000003" as="targetPoint" />
            <Array as="points">
              <mxPoint x="-603" y="1879" />
              <mxPoint x="-603" y="1728" />
            </Array>
          </mxGeometry>
        </mxCell>
        <mxCell id="fLMCegYD0Tb1E4QCByGs-32" style="edgeStyle=orthogonalEdgeStyle;rounded=0;orthogonalLoop=1;jettySize=auto;html=1;entryX=0;entryY=0.5;entryDx=0;entryDy=0;" parent="1" source="fLMCegYD0Tb1E4QCByGs-33" target="fLMCegYD0Tb1E4QCByGs-34" edge="1">
          <mxGeometry relative="1" as="geometry" />
        </mxCell>
        <mxCell id="fLMCegYD0Tb1E4QCByGs-33" value="Manual Eligibilities" style="image;aspect=fixed;html=1;points=[];align=center;fontSize=12;image=img/lib/azure2/analytics/Azure_Databricks.svg;" parent="1" vertex="1">
          <mxGeometry x="-427" y="1847" width="62.8" height="68" as="geometry" />
        </mxCell>
        <mxCell id="fLMCegYD0Tb1E4QCByGs-34" value="Persisted eligibility tables&lt;div&gt;&lt;span style=&quot;font-size: 12px;&quot;&gt;historyzone/Brazil/Sales/DigitalInsights&lt;/span&gt;&lt;span style=&quot;background-color: transparent; color: light-dark(rgb(0, 0, 0), rgb(255, 255, 255));&quot;&gt;/&lt;/span&gt;&lt;/div&gt;&lt;div&gt;&lt;span style=&quot;background-color: transparent; color: light-dark(rgb(0, 0, 0), rgb(255, 255, 255));&quot;&gt;DigitalComm/CommunicationPool/Eligibilities/&lt;/span&gt;&lt;/div&gt;" style="rounded=1;whiteSpace=wrap;html=1;fillColor=none;dashed=1;labelPosition=center;verticalLabelPosition=bottom;align=center;verticalAlign=top;" parent="1" vertex="1">
          <mxGeometry x="-248" y="1680" width="442.4" height="268" as="geometry" />
        </mxCell>
        <mxCell id="fLMCegYD0Tb1E4QCByGs-35" value="&lt;font style=&quot;font-size: 10px;&quot;&gt;/RelFinanceiroSpatenPrazo&lt;/font&gt;" style="image;aspect=fixed;html=1;points=[];align=center;fontSize=12;image=img/lib/azure2/general/Table.svg;" parent="1" vertex="1">
          <mxGeometry x="-156" y="1834.75" width="52.92" height="43" as="geometry" />
        </mxCell>
        <mxCell id="fLMCegYD0Tb1E4QCByGs-36" value="&lt;font style=&quot;font-size: 10px;&quot;&gt;/ComBblackOnAderidosBeneficios&lt;/font&gt;" style="image;aspect=fixed;html=1;points=[];align=center;fontSize=12;image=img/lib/azure2/general/Table.svg;" parent="1" vertex="1">
          <mxGeometry x="-156" y="1730.25" width="52.92" height="43" as="geometry" />
        </mxCell>
        <mxCell id="fLMCegYD0Tb1E4QCByGs-37" value="&lt;font style=&quot;font-size: 10px;&quot;&gt;/FerScannGenericoNaoultimomesvizi&lt;/font&gt;" style="image;aspect=fixed;html=1;points=[];align=center;fontSize=12;image=img/lib/azure2/general/Table.svg;" parent="1" vertex="1">
          <mxGeometry x="63" y="1730.25" width="52.92" height="43" as="geometry" />
        </mxCell>
        <mxCell id="fLMCegYD0Tb1E4QCByGs-38" value="&lt;font style=&quot;font-size: 10px;&quot;&gt;/ManPortMktplaceStone&lt;/font&gt;" style="image;aspect=fixed;html=1;points=[];align=center;fontSize=12;image=img/lib/azure2/general/Table.svg;" parent="1" vertex="1">
          <mxGeometry x="63" y="1834.75" width="52.92" height="43" as="geometry" />
        </mxCell>
        <mxCell id="fLMCegYD0Tb1E4QCByGs-39" value="&lt;div&gt;Union Daily Eligibilities&lt;/div&gt;&lt;div&gt;consumezone/Brazil/Sales/DigitalInsights/&lt;/div&gt;&lt;div&gt;DigitalComm/CommunicationPool/&lt;br&gt;&lt;/div&gt;" style="rounded=1;whiteSpace=wrap;html=1;fillColor=none;dashed=1;labelPosition=center;verticalLabelPosition=bottom;align=center;verticalAlign=top;" parent="1" vertex="1">
          <mxGeometry x="252" y="1680" width="403" height="268" as="geometry" />
        </mxCell>
        <mxCell id="fLMCegYD0Tb1E4QCByGs-40" style="edgeStyle=orthogonalEdgeStyle;rounded=0;orthogonalLoop=1;jettySize=auto;html=1;entryX=0;entryY=0.5;entryDx=0;entryDy=0;exitX=1;exitY=0.5;exitDx=0;exitDy=0;" parent="1" source="fLMCegYD0Tb1E4QCByGs-34" target="fLMCegYD0Tb1E4QCByGs-39" edge="1">
          <mxGeometry relative="1" as="geometry">
            <mxPoint x="325" y="1806.47" as="sourcePoint" />
            <mxPoint x="455" y="1739.47" as="targetPoint" />
          </mxGeometry>
        </mxCell>
        <mxCell id="fLMCegYD0Tb1E4QCByGs-41" value="&lt;font style=&quot;font-size: 10px;&quot;&gt;/Eligibilities&lt;/font&gt;" style="image;aspect=fixed;html=1;points=[];align=center;fontSize=12;image=img/lib/azure2/general/Table.svg;" parent="1" vertex="1">
          <mxGeometry x="552" y="1772" width="52.92" height="43" as="geometry" />
        </mxCell>
        <mxCell id="fLMCegYD0Tb1E4QCByGs-42" style="edgeStyle=orthogonalEdgeStyle;rounded=0;orthogonalLoop=1;jettySize=auto;html=1;" parent="1" source="fLMCegYD0Tb1E4QCByGs-43" target="fLMCegYD0Tb1E4QCByGs-44" edge="1">
          <mxGeometry relative="1" as="geometry" />
        </mxCell>
        <mxCell id="fLMCegYD0Tb1E4QCByGs-43" value="Read Eligibilities Table" style="image;aspect=fixed;html=1;points=[];align=center;fontSize=12;image=img/lib/azure2/analytics/Azure_Databricks.svg;" parent="1" vertex="1">
          <mxGeometry x="913" y="1782.75" width="59.34" height="64.25" as="geometry" />
        </mxCell>
        <mxCell id="fLMCegYD0Tb1E4QCByGs-44" value="Get Score&amp;nbsp;&lt;div&gt;by POC/Comm&amp;nbsp;&lt;div&gt;from algo&lt;div&gt;&lt;br&gt;&lt;/div&gt;&lt;/div&gt;&lt;/div&gt;" style="image;aspect=fixed;html=1;points=[];align=center;fontSize=12;image=img/lib/azure2/analytics/Azure_Databricks.svg;" parent="1" vertex="1">
          <mxGeometry x="913" y="1546" width="59.34" height="64.25" as="geometry" />
        </mxCell>
        <mxCell id="fLMCegYD0Tb1E4QCByGs-45" style="edgeStyle=orthogonalEdgeStyle;rounded=0;orthogonalLoop=1;jettySize=auto;html=1;entryX=0.479;entryY=0.007;entryDx=0;entryDy=0;entryPerimeter=0;" parent="1" source="fLMCegYD0Tb1E4QCByGs-46" target="fLMCegYD0Tb1E4QCByGs-48" edge="1">
          <mxGeometry relative="1" as="geometry" />
        </mxCell>
        <mxCell id="fLMCegYD0Tb1E4QCByGs-46" value="Ranking Comms&amp;nbsp;&lt;div&gt;by Poc and Score&lt;/div&gt;" style="image;aspect=fixed;html=1;points=[];align=center;fontSize=12;image=img/lib/azure2/analytics/Azure_Databricks.svg;" parent="1" vertex="1">
          <mxGeometry x="1138" y="1546" width="59.34" height="64.25" as="geometry" />
        </mxCell>
        <mxCell id="fLMCegYD0Tb1E4QCByGs-47" style="edgeStyle=orthogonalEdgeStyle;rounded=0;orthogonalLoop=1;jettySize=auto;html=1;entryX=0;entryY=0.514;entryDx=0;entryDy=0;entryPerimeter=0;" parent="1" source="fLMCegYD0Tb1E4QCByGs-44" target="fLMCegYD0Tb1E4QCByGs-46" edge="1">
          <mxGeometry relative="1" as="geometry">
            <mxPoint x="1085" y="1578" as="targetPoint" />
          </mxGeometry>
        </mxCell>
        <mxCell id="fLMCegYD0Tb1E4QCByGs-48" value="Disregard Channels&amp;nbsp;&lt;div&gt;Based on Input Comms&lt;/div&gt;" style="image;aspect=fixed;html=1;points=[];align=center;fontSize=12;image=img/lib/azure2/analytics/Azure_Databricks.svg;" parent="1" vertex="1">
          <mxGeometry x="1139" y="1781.88" width="59.34" height="64.25" as="geometry" />
        </mxCell>
        <mxCell id="fLMCegYD0Tb1E4QCByGs-49" style="edgeStyle=orthogonalEdgeStyle;rounded=0;orthogonalLoop=1;jettySize=auto;html=1;" parent="1" source="fLMCegYD0Tb1E4QCByGs-50" target="fLMCegYD0Tb1E4QCByGs-53" edge="1">
          <mxGeometry relative="1" as="geometry" />
        </mxCell>
        <mxCell id="fLMCegYD0Tb1E4QCByGs-50" value="Disregard Channels&amp;nbsp;&lt;div&gt;Based on Stress Limit&lt;/div&gt;" style="image;aspect=fixed;html=1;points=[];align=center;fontSize=12;image=img/lib/azure2/analytics/Azure_Databricks.svg;" parent="1" vertex="1">
          <mxGeometry x="1138" y="2001" width="59.34" height="64.25" as="geometry" />
        </mxCell>
        <mxCell id="fLMCegYD0Tb1E4QCByGs-51" style="edgeStyle=orthogonalEdgeStyle;rounded=0;orthogonalLoop=1;jettySize=auto;html=1;entryX=0.517;entryY=0.004;entryDx=0;entryDy=0;entryPerimeter=0;" parent="1" source="fLMCegYD0Tb1E4QCByGs-48" target="fLMCegYD0Tb1E4QCByGs-50" edge="1">
          <mxGeometry relative="1" as="geometry" />
        </mxCell>
        <mxCell id="fLMCegYD0Tb1E4QCByGs-52" style="edgeStyle=orthogonalEdgeStyle;rounded=0;orthogonalLoop=1;jettySize=auto;html=1;" parent="1" source="fLMCegYD0Tb1E4QCByGs-53" target="fLMCegYD0Tb1E4QCByGs-55" edge="1">
          <mxGeometry relative="1" as="geometry" />
        </mxCell>
        <mxCell id="fLMCegYD0Tb1E4QCByGs-53" value="Set Comms to the Channels" style="image;aspect=fixed;html=1;points=[];align=center;fontSize=12;image=img/lib/azure2/analytics/Azure_Databricks.svg;" parent="1" vertex="1">
          <mxGeometry x="1351" y="2001" width="59.34" height="64.25" as="geometry" />
        </mxCell>
        <mxCell id="fLMCegYD0Tb1E4QCByGs-54" style="edgeStyle=orthogonalEdgeStyle;rounded=0;orthogonalLoop=1;jettySize=auto;html=1;" parent="1" source="fLMCegYD0Tb1E4QCByGs-55" target="fLMCegYD0Tb1E4QCByGs-56" edge="1">
          <mxGeometry relative="1" as="geometry" />
        </mxCell>
        <mxCell id="fLMCegYD0Tb1E4QCByGs-55" value="Replace MAB to Manual Channel&amp;nbsp;&lt;div&gt;setted on Input Comms&lt;/div&gt;" style="image;aspect=fixed;html=1;points=[];align=center;fontSize=12;image=img/lib/azure2/analytics/Azure_Databricks.svg;" parent="1" vertex="1">
          <mxGeometry x="1351" y="1781.88" width="59.34" height="64.25" as="geometry" />
        </mxCell>
        <mxCell id="fLMCegYD0Tb1E4QCByGs-56" value="Liimit One Push a Day" style="image;aspect=fixed;html=1;points=[];align=center;fontSize=12;image=img/lib/azure2/analytics/Azure_Databricks.svg;" parent="1" vertex="1">
          <mxGeometry x="1351" y="1546" width="59.34" height="64.25" as="geometry" />
        </mxCell>
        <mxCell id="fLMCegYD0Tb1E4QCByGs-57" value="Inad Coexistence" style="image;aspect=fixed;html=1;points=[];align=center;fontSize=12;image=img/lib/azure2/analytics/Azure_Databricks.svg;" parent="1" vertex="1">
          <mxGeometry x="1556" y="1781.88" width="59.34" height="64.25" as="geometry" />
        </mxCell>
        <mxCell id="fLMCegYD0Tb1E4QCByGs-58" value="&lt;a href=&quot;https://anheuserbuschinbev.sharepoint.com/:x:/r/sites/digitalinsights/_layouts/15/Doc.aspx?sourcedoc=%7B40ACA413-282A-4362-81FC-0AE171D25209%7D&amp;amp;file=template_input_comms.xlsx&amp;amp;action=default&amp;amp;mobileredirect=true&quot;&gt;Template Input Comms&lt;/a&gt;" style="shape=note;size=20;whiteSpace=wrap;html=1;" parent="1" vertex="1">
          <mxGeometry x="-823" y="1897" width="104.1" height="42" as="geometry" />
        </mxCell>
        <mxCell id="fLMCegYD0Tb1E4QCByGs-59" style="edgeStyle=orthogonalEdgeStyle;rounded=0;orthogonalLoop=1;jettySize=auto;html=1;" parent="1" source="fLMCegYD0Tb1E4QCByGs-60" target="fLMCegYD0Tb1E4QCByGs-57" edge="1">
          <mxGeometry relative="1" as="geometry" />
        </mxCell>
        <mxCell id="fLMCegYD0Tb1E4QCByGs-60" value="Bypass Prioritized&amp;nbsp;&lt;div&gt;Communications&lt;div&gt;by Input Comms&lt;/div&gt;&lt;/div&gt;" style="image;aspect=fixed;html=1;points=[];align=center;fontSize=12;image=img/lib/azure2/analytics/Azure_Databricks.svg;" parent="1" vertex="1">
          <mxGeometry x="1556" y="1544" width="59.34" height="64.25" as="geometry" />
        </mxCell>
        <mxCell id="fLMCegYD0Tb1E4QCByGs-61" value="" style="html=1;verticalLabelPosition=bottom;labelBackgroundColor=#ffffff;verticalAlign=top;shadow=0;dashed=0;strokeWidth=2;shape=mxgraph.ios7.misc.star;fillColor=#0080f0;strokeColor=none;sketch=0;" parent="1" vertex="1">
          <mxGeometry x="1608.34" y="1535.38" width="22" height="20" as="geometry" />
        </mxCell>
        <mxCell id="fLMCegYD0Tb1E4QCByGs-62" value="" style="shape=image;html=1;verticalAlign=top;verticalLabelPosition=bottom;labelBackgroundColor=#ffffff;imageAspect=0;aspect=fixed;image=https://cdn1.iconfinder.com/data/icons/iconoir-vol-3/24/question-mark-circle-128.png" parent="1" vertex="1">
          <mxGeometry x="1406" y="1538.38" width="29" height="29" as="geometry" />
        </mxCell>
        <mxCell id="fLMCegYD0Tb1E4QCByGs-65" value="Write Merged Eligibilities&lt;div&gt;Table on consume zone&lt;/div&gt;" style="image;aspect=fixed;html=1;points=[];align=center;fontSize=12;image=img/lib/azure2/analytics/Azure_Databricks.svg;" parent="1" vertex="1">
          <mxGeometry x="1556" y="2001" width="59.34" height="64.25" as="geometry" />
        </mxCell>
        <mxCell id="gB1bMh3g8ZrPAFYnOkoU-16" style="edgeStyle=orthogonalEdgeStyle;rounded=0;orthogonalLoop=1;jettySize=auto;html=1;" edge="1" parent="1" source="fLMCegYD0Tb1E4QCByGs-66" target="fLMCegYD0Tb1E4QCByGs-10">
          <mxGeometry relative="1" as="geometry" />
        </mxCell>
        <mxCell id="fLMCegYD0Tb1E4QCByGs-66" value="Prepare Data to Sync with Braze" style="rounded=1;whiteSpace=wrap;html=1;fillColor=none;labelPosition=center;verticalLabelPosition=top;align=center;verticalAlign=bottom;" parent="1" vertex="1">
          <mxGeometry x="1841" y="1442" width="802" height="760" as="geometry" />
        </mxCell>
        <mxCell id="fLMCegYD0Tb1E4QCByGs-67" style="edgeStyle=orthogonalEdgeStyle;rounded=0;orthogonalLoop=1;jettySize=auto;html=1;entryX=-0.014;entryY=0.667;entryDx=0;entryDy=0;entryPerimeter=0;" parent="1" source="fLMCegYD0Tb1E4QCByGs-18" target="fLMCegYD0Tb1E4QCByGs-33" edge="1">
          <mxGeometry relative="1" as="geometry" />
        </mxCell>
        <mxCell id="gB1bMh3g8ZrPAFYnOkoU-15" style="edgeStyle=orthogonalEdgeStyle;rounded=0;orthogonalLoop=1;jettySize=auto;html=1;" edge="1" parent="1" source="fLMCegYD0Tb1E4QCByGs-69" target="gB1bMh3g8ZrPAFYnOkoU-14">
          <mxGeometry relative="1" as="geometry" />
        </mxCell>
        <mxCell id="fLMCegYD0Tb1E4QCByGs-69" value="Write Log&lt;div&gt;Weekly Distinct Comms Count&lt;/div&gt;" style="image;aspect=fixed;html=1;points=[];align=center;fontSize=12;image=img/lib/azure2/analytics/Azure_Databricks.svg;" parent="1" vertex="1">
          <mxGeometry x="2416" y="1766" width="59.34" height="64.25" as="geometry" />
        </mxCell>
        <mxCell id="fLMCegYD0Tb1E4QCByGs-70" value="Join Count&amp;nbsp;&lt;div&gt;Weekly&amp;nbsp;&lt;/div&gt;&lt;div&gt;Distinct Comms&lt;/div&gt;" style="image;aspect=fixed;html=1;points=[];align=center;fontSize=12;image=img/lib/azure2/analytics/Azure_Databricks.svg;" parent="1" vertex="1">
          <mxGeometry x="384" y="1765" width="59.34" height="64.25" as="geometry" />
        </mxCell>
        <mxCell id="fLMCegYD0Tb1E4QCByGs-71" style="edgeStyle=orthogonalEdgeStyle;rounded=0;orthogonalLoop=1;jettySize=auto;html=1;entryX=0.003;entryY=0.535;entryDx=0;entryDy=0;entryPerimeter=0;" parent="1" source="fLMCegYD0Tb1E4QCByGs-56" target="fLMCegYD0Tb1E4QCByGs-60" edge="1">
          <mxGeometry relative="1" as="geometry" />
        </mxCell>
        <mxCell id="fLMCegYD0Tb1E4QCByGs-72" style="edgeStyle=orthogonalEdgeStyle;rounded=0;orthogonalLoop=1;jettySize=auto;html=1;entryX=0.499;entryY=0.048;entryDx=0;entryDy=0;entryPerimeter=0;" parent="1" source="fLMCegYD0Tb1E4QCByGs-57" target="fLMCegYD0Tb1E4QCByGs-65" edge="1">
          <mxGeometry relative="1" as="geometry" />
        </mxCell>
        <mxCell id="fLMCegYD0Tb1E4QCByGs-73" style="edgeStyle=orthogonalEdgeStyle;rounded=0;orthogonalLoop=1;jettySize=auto;html=1;" parent="1" source="fLMCegYD0Tb1E4QCByGs-74" target="fLMCegYD0Tb1E4QCByGs-75" edge="1">
          <mxGeometry relative="1" as="geometry" />
        </mxCell>
        <mxCell id="fLMCegYD0Tb1E4QCByGs-74" value="Read Merged Eligibilities" style="image;aspect=fixed;html=1;points=[];align=center;fontSize=12;image=img/lib/azure2/analytics/Azure_Databricks.svg;" parent="1" vertex="1">
          <mxGeometry x="1923" y="1779.75" width="59.34" height="64.25" as="geometry" />
        </mxCell>
        <mxCell id="fLMCegYD0Tb1E4QCByGs-75" value="Ensure that Comms&amp;nbsp;&lt;div&gt;were Generated Today&lt;/div&gt;" style="image;aspect=fixed;html=1;points=[];align=center;fontSize=12;image=img/lib/azure2/analytics/Azure_Databricks.svg;" parent="1" vertex="1">
          <mxGeometry x="1923" y="1546" width="59.34" height="64.25" as="geometry" />
        </mxCell>
        <mxCell id="fLMCegYD0Tb1E4QCByGs-76" value="&lt;div&gt;Get user_id Column from the&lt;/div&gt;&lt;div&gt;Users_Id Table&lt;/div&gt;" style="image;aspect=fixed;html=1;points=[];align=center;fontSize=12;image=img/lib/azure2/analytics/Azure_Databricks.svg;" parent="1" vertex="1">
          <mxGeometry x="2180" y="1544" width="59.34" height="64.25" as="geometry" />
        </mxCell>
        <mxCell id="fLMCegYD0Tb1E4QCByGs-77" style="edgeStyle=orthogonalEdgeStyle;rounded=0;orthogonalLoop=1;jettySize=auto;html=1;entryX=0.018;entryY=0.531;entryDx=0;entryDy=0;entryPerimeter=0;" parent="1" source="fLMCegYD0Tb1E4QCByGs-75" target="fLMCegYD0Tb1E4QCByGs-76" edge="1">
          <mxGeometry relative="1" as="geometry" />
        </mxCell>
        <mxCell id="fLMCegYD0Tb1E4QCByGs-78" style="edgeStyle=orthogonalEdgeStyle;rounded=0;orthogonalLoop=1;jettySize=auto;html=1;" parent="1" source="fLMCegYD0Tb1E4QCByGs-79" target="fLMCegYD0Tb1E4QCByGs-85" edge="1">
          <mxGeometry relative="1" as="geometry" />
        </mxCell>
        <mxCell id="fLMCegYD0Tb1E4QCByGs-79" value="&lt;span style=&quot;font-size: 12px;&quot;&gt;Changes Merged Eligibilities&lt;/span&gt;&lt;div&gt;&lt;span style=&quot;font-size: 12px;&quot;&gt;to the Format Expected by Braze&lt;/span&gt;&lt;br&gt;&lt;/div&gt;" style="image;aspect=fixed;html=1;points=[];align=center;fontSize=12;image=img/lib/azure2/analytics/Azure_Databricks.svg;" parent="1" vertex="1">
          <mxGeometry x="2180" y="1766" width="59.34" height="64.25" as="geometry" />
        </mxCell>
        <mxCell id="fLMCegYD0Tb1E4QCByGs-80" style="edgeStyle=orthogonalEdgeStyle;rounded=0;orthogonalLoop=1;jettySize=auto;html=1;entryX=0.496;entryY=0.035;entryDx=0;entryDy=0;entryPerimeter=0;" parent="1" source="fLMCegYD0Tb1E4QCByGs-76" target="fLMCegYD0Tb1E4QCByGs-79" edge="1">
          <mxGeometry relative="1" as="geometry" />
        </mxCell>
        <mxCell id="fLMCegYD0Tb1E4QCByGs-81" style="edgeStyle=orthogonalEdgeStyle;rounded=0;orthogonalLoop=1;jettySize=auto;html=1;" parent="1" source="fLMCegYD0Tb1E4QCByGs-83" target="fLMCegYD0Tb1E4QCByGs-69" edge="1">
          <mxGeometry relative="1" as="geometry" />
        </mxCell>
        <mxCell id="gB1bMh3g8ZrPAFYnOkoU-18" style="edgeStyle=orthogonalEdgeStyle;rounded=0;orthogonalLoop=1;jettySize=auto;html=1;" edge="1" parent="1" source="fLMCegYD0Tb1E4QCByGs-83" target="gB1bMh3g8ZrPAFYnOkoU-17">
          <mxGeometry relative="1" as="geometry" />
        </mxCell>
        <mxCell id="fLMCegYD0Tb1E4QCByGs-83" value="&lt;div&gt;Write Result&amp;nbsp;&lt;/div&gt;&lt;div&gt;Table to the&lt;/div&gt;&lt;div&gt;Hive Catalog&lt;/div&gt;" style="image;aspect=fixed;html=1;points=[];align=center;fontSize=12;image=img/lib/azure2/analytics/Azure_Databricks.svg;" parent="1" vertex="1">
          <mxGeometry x="2416" y="1981" width="59.34" height="64.25" as="geometry" />
        </mxCell>
        <mxCell id="fLMCegYD0Tb1E4QCByGs-84" style="edgeStyle=orthogonalEdgeStyle;rounded=0;orthogonalLoop=1;jettySize=auto;html=1;" parent="1" source="fLMCegYD0Tb1E4QCByGs-85" target="fLMCegYD0Tb1E4QCByGs-83" edge="1">
          <mxGeometry relative="1" as="geometry" />
        </mxCell>
        <mxCell id="fLMCegYD0Tb1E4QCByGs-85" value="&lt;div&gt;Write Result&amp;nbsp;&lt;/div&gt;&lt;div&gt;Table to the&lt;/div&gt;&lt;div&gt;Consume Zone&lt;/div&gt;" style="image;aspect=fixed;html=1;points=[];align=center;fontSize=12;image=img/lib/azure2/analytics/Azure_Databricks.svg;" parent="1" vertex="1">
          <mxGeometry x="2180" y="1981" width="59.34" height="64.25" as="geometry" />
        </mxCell>
        <mxCell id="fLMCegYD0Tb1E4QCByGs-86" value="" style="html=1;verticalLabelPosition=bottom;labelBackgroundColor=#ffffff;verticalAlign=top;shadow=0;dashed=0;strokeWidth=2;shape=mxgraph.ios7.misc.star;fillColor=#0080f0;strokeColor=none;sketch=0;" parent="1" vertex="1">
          <mxGeometry x="2478" y="1757.88" width="22" height="20" as="geometry" />
        </mxCell>
        <mxCell id="fLMCegYD0Tb1E4QCByGs-87" style="edgeStyle=orthogonalEdgeStyle;rounded=0;orthogonalLoop=1;jettySize=auto;html=1;entryX=0;entryY=0.5;entryDx=0;entryDy=0;" parent="1" source="fLMCegYD0Tb1E4QCByGs-88" target="fLMCegYD0Tb1E4QCByGs-95" edge="1">
          <mxGeometry relative="1" as="geometry" />
        </mxCell>
        <mxCell id="fLMCegYD0Tb1E4QCByGs-88" value="Eligibility&amp;nbsp;" style="rounded=1;whiteSpace=wrap;html=1;fillColor=none;labelPosition=center;verticalLabelPosition=top;align=center;verticalAlign=bottom;" parent="1" vertex="1">
          <mxGeometry x="-347.49" y="2406.5" width="994" height="363" as="geometry" />
        </mxCell>
        <mxCell id="fLMCegYD0Tb1E4QCByGs-89" style="edgeStyle=orthogonalEdgeStyle;rounded=0;orthogonalLoop=1;jettySize=auto;html=1;" parent="1" source="fLMCegYD0Tb1E4QCByGs-90" target="fLMCegYD0Tb1E4QCByGs-92" edge="1">
          <mxGeometry relative="1" as="geometry" />
        </mxCell>
        <mxCell id="fLMCegYD0Tb1E4QCByGs-90" value="Read Source Table" style="image;aspect=fixed;html=1;points=[];align=center;fontSize=12;image=img/lib/azure2/analytics/Azure_Databricks.svg;" parent="1" vertex="1">
          <mxGeometry x="-211" y="2531" width="62.8" height="68" as="geometry" />
        </mxCell>
        <mxCell id="fLMCegYD0Tb1E4QCByGs-91" style="edgeStyle=orthogonalEdgeStyle;rounded=0;orthogonalLoop=1;jettySize=auto;html=1;" parent="1" source="fLMCegYD0Tb1E4QCByGs-92" target="fLMCegYD0Tb1E4QCByGs-93" edge="1">
          <mxGeometry relative="1" as="geometry" />
        </mxCell>
        <mxCell id="fLMCegYD0Tb1E4QCByGs-92" value="Apply Eligibility Rules" style="image;aspect=fixed;html=1;points=[];align=center;fontSize=12;image=img/lib/azure2/analytics/Azure_Databricks.svg;" parent="1" vertex="1">
          <mxGeometry x="115" y="2532" width="62.8" height="68" as="geometry" />
        </mxCell>
        <mxCell id="fLMCegYD0Tb1E4QCByGs-93" value="Write the Result Table&lt;div&gt;On Data Lake&lt;/div&gt;" style="image;aspect=fixed;html=1;points=[];align=center;fontSize=12;image=img/lib/azure2/analytics/Azure_Databricks.svg;" parent="1" vertex="1">
          <mxGeometry x="422" y="2531" width="62.8" height="68" as="geometry" />
        </mxCell>
        <mxCell id="fLMCegYD0Tb1E4QCByGs-94" style="edgeStyle=orthogonalEdgeStyle;rounded=0;orthogonalLoop=1;jettySize=auto;html=1;entryX=0;entryY=0.5;entryDx=0;entryDy=0;" parent="1" source="fLMCegYD0Tb1E4QCByGs-95" target="fLMCegYD0Tb1E4QCByGs-3" edge="1">
          <mxGeometry relative="1" as="geometry" />
        </mxCell>
        <mxCell id="fLMCegYD0Tb1E4QCByGs-95" value="Prepare Data to Sync with Braze" style="rounded=1;whiteSpace=wrap;html=1;fillColor=none;labelPosition=center;verticalLabelPosition=top;align=center;verticalAlign=bottom;" parent="1" vertex="1">
          <mxGeometry x="815" y="2406.5" width="1354" height="363" as="geometry" />
        </mxCell>
        <mxCell id="fLMCegYD0Tb1E4QCByGs-96" style="edgeStyle=orthogonalEdgeStyle;rounded=0;orthogonalLoop=1;jettySize=auto;html=1;" parent="1" source="fLMCegYD0Tb1E4QCByGs-97" target="fLMCegYD0Tb1E4QCByGs-98" edge="1">
          <mxGeometry relative="1" as="geometry" />
        </mxCell>
        <mxCell id="fLMCegYD0Tb1E4QCByGs-97" value="Read Merged Eligibilities" style="image;aspect=fixed;html=1;points=[];align=center;fontSize=12;image=img/lib/azure2/analytics/Azure_Databricks.svg;" parent="1" vertex="1">
          <mxGeometry x="934" y="2540" width="59.34" height="64.25" as="geometry" />
        </mxCell>
        <mxCell id="fLMCegYD0Tb1E4QCByGs-98" value="Ensure that Comms&amp;nbsp;&lt;div&gt;were Generated Today&lt;/div&gt;" style="image;aspect=fixed;html=1;points=[];align=center;fontSize=12;image=img/lib/azure2/analytics/Azure_Databricks.svg;" parent="1" vertex="1">
          <mxGeometry x="1136" y="2540" width="59.34" height="64.25" as="geometry" />
        </mxCell>
        <mxCell id="fLMCegYD0Tb1E4QCByGs-99" value="&lt;div&gt;Get user_id Column from the&lt;/div&gt;&lt;div&gt;Users_Id Table&lt;/div&gt;" style="image;aspect=fixed;html=1;points=[];align=center;fontSize=12;image=img/lib/azure2/analytics/Azure_Databricks.svg;" parent="1" vertex="1">
          <mxGeometry x="1346" y="2537.75" width="59.34" height="64.25" as="geometry" />
        </mxCell>
        <mxCell id="fLMCegYD0Tb1E4QCByGs-100" style="edgeStyle=orthogonalEdgeStyle;rounded=0;orthogonalLoop=1;jettySize=auto;html=1;entryX=0.018;entryY=0.531;entryDx=0;entryDy=0;entryPerimeter=0;" parent="1" source="fLMCegYD0Tb1E4QCByGs-98" target="fLMCegYD0Tb1E4QCByGs-99" edge="1">
          <mxGeometry relative="1" as="geometry" />
        </mxCell>
        <mxCell id="fLMCegYD0Tb1E4QCByGs-101" style="edgeStyle=orthogonalEdgeStyle;rounded=0;orthogonalLoop=1;jettySize=auto;html=1;" parent="1" source="fLMCegYD0Tb1E4QCByGs-102" target="fLMCegYD0Tb1E4QCByGs-106" edge="1">
          <mxGeometry relative="1" as="geometry" />
        </mxCell>
        <mxCell id="fLMCegYD0Tb1E4QCByGs-102" value="&lt;span style=&quot;font-size: 12px;&quot;&gt;Changes Merged Eligibilities&lt;/span&gt;&lt;div&gt;&lt;span style=&quot;font-size: 12px;&quot;&gt;to the Format Expected by Braze&lt;/span&gt;&lt;br&gt;&lt;/div&gt;" style="image;aspect=fixed;html=1;points=[];align=center;fontSize=12;image=img/lib/azure2/analytics/Azure_Databricks.svg;" parent="1" vertex="1">
          <mxGeometry x="1560.66" y="2540" width="59.34" height="64.25" as="geometry" />
        </mxCell>
        <mxCell id="fLMCegYD0Tb1E4QCByGs-103" style="edgeStyle=orthogonalEdgeStyle;rounded=0;orthogonalLoop=1;jettySize=auto;html=1;entryX=0.008;entryY=0.468;entryDx=0;entryDy=0;entryPerimeter=0;" parent="1" source="fLMCegYD0Tb1E4QCByGs-99" target="fLMCegYD0Tb1E4QCByGs-102" edge="1">
          <mxGeometry relative="1" as="geometry" />
        </mxCell>
        <mxCell id="fLMCegYD0Tb1E4QCByGs-104" value="&lt;div&gt;Write Result Table to the&lt;/div&gt;&lt;div&gt;Hive Catalog&lt;/div&gt;" style="image;aspect=fixed;html=1;points=[];align=center;fontSize=12;image=img/lib/azure2/analytics/Azure_Databricks.svg;" parent="1" vertex="1">
          <mxGeometry x="2020" y="2540" width="59.34" height="64.25" as="geometry" />
        </mxCell>
        <mxCell id="fLMCegYD0Tb1E4QCByGs-105" style="edgeStyle=orthogonalEdgeStyle;rounded=0;orthogonalLoop=1;jettySize=auto;html=1;" parent="1" source="fLMCegYD0Tb1E4QCByGs-106" target="fLMCegYD0Tb1E4QCByGs-104" edge="1">
          <mxGeometry relative="1" as="geometry" />
        </mxCell>
        <mxCell id="fLMCegYD0Tb1E4QCByGs-106" value="&lt;div&gt;Write Result Table to the&lt;/div&gt;&lt;div&gt;Consume Zone&lt;/div&gt;" style="image;aspect=fixed;html=1;points=[];align=center;fontSize=12;image=img/lib/azure2/analytics/Azure_Databricks.svg;" parent="1" vertex="1">
          <mxGeometry x="1786" y="2540" width="59.34" height="64.25" as="geometry" />
        </mxCell>
        <mxCell id="fLMCegYD0Tb1E4QCByGs-107" value="Nested Attribute:&amp;nbsp;&lt;span style=&quot;color: rgb(17, 23, 28); font-family: -apple-system, BlinkMacSystemFont, &amp;quot;Segoe UI&amp;quot;, Roboto, &amp;quot;Helvetica Neue&amp;quot;, Arial, &amp;quot;Noto Sans&amp;quot;, sans-serif, &amp;quot;Apple Color Emoji&amp;quot;, &amp;quot;Segoe UI Emoji&amp;quot;, &amp;quot;Segoe UI Symbol&amp;quot;, &amp;quot;Noto Color Emoji&amp;quot;; text-align: left; white-space-collapse: preserve;&quot;&gt;To Be Defined&lt;/span&gt;" style="rounded=1;whiteSpace=wrap;html=1;fillColor=none;dashed=1;labelPosition=center;verticalLabelPosition=bottom;align=center;verticalAlign=top;" parent="1" vertex="1">
          <mxGeometry x="2586" y="2492.87" width="296" height="154" as="geometry" />
        </mxCell>
        <mxCell id="fLMCegYD0Tb1E4QCByGs-108" value="https://dashboard-03.braze.com/" style="shape=image;verticalLabelPosition=bottom;labelBackgroundColor=default;verticalAlign=top;aspect=fixed;imageAspect=0;image=data:image/png,iVBORw0KGgoAAAANSUhEUgAAAJ0AAABMCAIAAAD4JiILAAARU0lEQVR4Ae1ca1BV1RffX5rhIuDlJcozJS1QMjLSkEQGxXiZjzEZDKMxwWoYLCBTtCtJipQiPhFEHoZmhg6gpKkBAQKD5CMCBYEQAVHAiyB8cs6ff2fa7dbeZ3PuFRuhy4dae+3fepz1O+ee/ToiQfc3GiuARuNF6a5J0PE6Om+CJ+K1oaHBz89PX1/fy8uru7t7dFZoZF7VE/E6fvx49NffokWLRmYFRmfW2vN6/fr1vzj9//9NTU1HZ4VG5lVpz+vx48dJXi0sLEZmBUZn1trzGhsbS/Lq7u4+Ois0Mq9Ke15XrlxJ8vrhhx+OzAqMzqy159XZ2Znkde/evaOzQiPzqrTk9fHjx8899xzJa1FR0ciswOjMWkteq6urSVIRQmq1enRWaGRelZa8fvvttySvU6ZMGZmXP2qz1pLXTz/9lOR1xYoVo7ZCI/PCtOT1zTffJHnVDZqeNfa15NXAwIDk9cqVK8/ahf3H89GGV7CCqKen9/jx4/94HZ+1y9eG13379pEPq4+PD76qrq6ugj//fv/9d6zUSLhz505iYuKJEyc0stIC3NjYKKZaXFzc29urhQctTLq6uqqqqrQwrKqqKigoqKys7Ovrk2OuDa/Lly8neY2Pjy8rKwsLC3NzcyP1CCEnJ6etW7fKr1pOTg72sGDBAjkXoCmmtrY2Ojp6+vTpOJAoeHp6gpspMjLSwsLCzs5uz549zChqtbqoqOjq1autra1MgKhUq9WlpaU7d+708/MTY02YMKGiooJjInb19/enp6f7+/uDVG1tbUNDQ+/fv8/xoA2vlpaWZKQpU6aQTVo2MTHZt28fJwncZWdnR5q3tbXhLlooLy+/d+8erZfSNDc3L1q0iPRPy8uXLxfNP//8c7K3uroauP36669JAELIxMTE0dFxzpw57u7ubm5utra2AEA27e3tgUOy2dPTExMTY2ZmRpoAWalUFhcXk1akrDGv9fX1IIDMZnh4OBmYlm/evAlcpaenFxQUNDc3t7S0nD59OiYmZuHChQ4ODiRs3bp1tCtac+TIESMjI9JQSo6Jient7VUoFCQgPT2d9Hnp0iWyVzu5ubmZ9Inl7OxscmOb43zMmDFXr17FhqSgMa9paWmcSPyuiIgIMjaQ9+/fzzeX6pUqEPYfEhIiZcvUx8TEAP3Zs2exN0EQdu7cCQCaNo2MjEiHWF63bp1Grtzc3LAtKWjMa3BwsEaBAZgzIwKvbWDIaRYWFpKXBORly5ZxbOV0KRSK/v5+0u2ZM2fkGHIwhw8fJh2KcmRkJMdEqqu2tpZ2pTGv4BVIBnNyctq4cWN2dvbRo0c/++yzl19+mewV5VmzZtFJiBoLCwsaP6RGX1+fszS9fft2pgd/f/9jx44VFBQkJyd7e3szMVjp6elJ57x48WIM0FT45JNPaIf0C1t0GxAQkJ+f393d/fDhQ5VKRcc6ePAg7U0zXulXoBjG0tIyJyeH9r527Vo6j8uXL9PI2tpaGilHs2HDBtqbqLl8+TLt4Y033rh27RowOXPmzJgxY2iwqImJiQF4sVldXZ2Xl5eenr5jx47o6OiQkJDFixfPnTvX/c8/Ly+v4ODgmTNnArdz586lvZ08eRLAEELOzs7Xr18HYLCCixCKiooCGEHQ8Jzpnj176PB2dnZ3796lXYua119/HZgwmaBfrq6urmKB8H/nzZtnZWVFelMoFJzhPhhhIYTc3d2l5n/MyoqxOMNOqasW9Tdu3AC3i42NDZ1wU1MTPaZbunQp0zn9aIWFhdFIzZ5XX19fsqwIoTFjxty8eZP2izX0q4h5YmbevHmkZ3Nzc+wBC01NTSQGIcT8QRPxe/fuBeAZM2aA1yT2LArgpIBobmhoCGAym/fu3XvhhRfIHBQKBXNRYs6cOSQMIUQu9YBwra2tALxp0yaA0ex57evrAx4RQsz3PwgDLs/KygoA7t+/DzyvWbMGYAab9NtFakFArVaDyZ+lpSV/NiwIwoEDB0AaCKG3336bzmRITV9f34wZM4C37Oxs2pC+762srDiHsbOzs4HbrKws2q0GzyvtUeaZ4ffffx+kAvJITk4GgAsXLgCMIAhgph8cHExjRE10dDRwKOe3tLKyElghhBISEqSicPT0Akh8fDwT/9prr4Gg/JMn4IcNIcS8XzXgNSgoiMxAqVR2dnYycwVKelAKAJ6enqRnExMTABAEIS8vj8QghDhL0OBhXbZsGe2Q1tA/GwihyspKGsnXbNiwAaS6cuVKpklFRQVA+vv7M5GiMj8/H+DfeustJl4DXpVKJek0MjKS6ZFW0ksZJIZewAoJCSEBoowXV8UcOG+g77//nswTIXTr1i3aIa3p6ekBhvr6+jSMrzl69Chw4uzsPDAwwLSiF0zKy8uZSEEQWlpabGxsgPOCggImXi6v586dAx4bGxuZHmnl4cOHSVszMzMSEx4eTvYihOhr6+zsBJhTp06RTkh5/vz5JJg5+yTxWKbHZZruPVRVVenp6ZHRjY2N//jjDxwCCGDK/uqrrwIAbra3t4NhCkJo/vz5GAAEubyGhoaS6fr5+QFHnOaOHTtIW2dnZwxWq9VgJjB16lTciwXwAuZ8M9LQ0EDGQghlZGRgP3yhqqoK2G7bto1vQva2t7dbW1sDD+fOnSMxpHzt2jUAjo6OJgFYbmlpoedsCoWC82jJ4rW/vx/8CO/atQtHHVIAC4SBgYHYJD4+HlxbYmIi7sUCeAFzthDopbiuri7shy9kZGSAZOhfDo4HegQktaAhOjl06BAIxxwxFRcXm5iYACRCKDU1lZOMLF53794N/JaVlXGcgq5JkyaR5nFxcSLg0aNHEyZMILtMTEzodQO1Wk1iEELMFStBEAYGBkAJpk+fDpLhNFetWkUGYg7fpMxXrFhB2iKEvL29pcCinr4F6em11AZDaGgo37ksXidOnAiSpjOQCtPY2Ahs8V25ceNG0MWcYh87doyEgdczGTc1NZVEIoSY82DShJTBZeK9WBLDlLds2QLiTpo06cGDB0wwVoIdFPDh2m+//UavQYpRPvjgA+xEShia14SEBJA0p7J0GLCYgJdvaL6lFgXBo8Ap97Rp00Cq33zzDZ0SU1NUVARsZZ4FoAfARkZGNTU1zCikEsxx8bBjYGBg/fr1IBncZK4Gk25FeQhe6+vrwQAPISS1d0h7FwQBDM3feecdEQZemQgh5sMqCAIYjDC3LwRBoEfsCKEDBw4ws6KVS5cuxbUThV9//ZWGAU15eTmwQgidP38ewJhNsIEo8nrixAmw/EL6z8zMZLqilUPwSh9ZQgjJn9VlZWWRaSGEfv75Z0EQMjMzgd7MzGxwH4rOr6urCyClHoUFCxYAJEJo+/bttE9ac+vWLWBrYGBAw4Cmu7ub5kDmUy4IAvgg0czMjLNj6ODgwFmHAYkNsT68ZMkScLW4STuiNb29vWBYJM5hLl68iP1gQepsGA2mAwmC8NNPP2FXpPDxxx8z8UAJjrkjhCZPngwwdJOmQaPvHqKioshUOfJXX31FR+drJJ9X8OsPosq5d8LCwoBVRkbG+fPn9fX1gd7Dw0MqS7B/5+joyETSb1YxxOzZs5l4Urlr1y6QD0KIs/8v2tKvwGnTpskfTvb19QUGBtJxgcbb25szSSWvAsgMXm/fvj1r1iwQADQ3b94MHIEmvTdia2sLPnEXfZqbm9+5cweY4yY4asSct3zxxRcgPbLJP/104cIFEoxlZiCcFT3w1tfXr6urwwCO0NfXFxcXZ2pqimMxhYkTJ548eZLjRxCEzs7OmJgYX1/f+Ph4sFQJec3NzQVLEMyohoaGnL303Nxc2gqsxYsAAwMDzoknQRDAQ08/r/TcGoRev369VHVKSkroHw/RXKFQSFkxd+DDwsLEU+bl5eUtLS1M24cPH27btg3MsEG2CCF7e3s5u58pKSmkLZjR/oNXeiNCtFQqlT4+PqQXhJCDgwPzxBQ9LwKGuDl27NiSkhJmCbByzZo1GI8Q0tPTI0+Z0+c3mDzl5uZih1iQmvLjcKdPn8ZgLCQlJWEAX3BxcQkPDxc30R4+fBgbG2tsbMw3EXvfffdd5tYbzqGmpoberQPT3795jYiIYEY1MDCoqKiQOn8UERFRWlo6+GB1dXWlpKTQ5+iZPhFCdnZ2zNsCZy8K27ZtAx6WLFnS2tra3d0dEBAAuoyNjcvKyoBSbOIJT21tbUpKyuzZs5kwUjl+/HjyeFFbW5ucNyLpASFkbGwcFhYmk1HSNjQ09NSpUx0dHbggJSUlmzZtcnFxIWFYdnFxwch/jIfHjh2LQViwtrbGJ4/B+gDGaCF4eHjI3LulN9044S5evCgIAr2NzzERu8zMzOhxkNjl6+u7cePGVatWgZPiQ/qUAwgPD5c/KuY7BAcH/n5e6W2gwMBA8pBVZ2fnkJ9s8GOLvfzVcPKmEwSBPs4jFWL//v2ibUNDA30MTMpK/P7iypUrzE11jtWTdDk5OWVkZODjsV5eXk/izd7enl6u/5vX7777Dnt/8cUXxXsfVLmtre3555/HME2FhQsX8g+5gXBiE+yoM4MeOnSItC0uLqaXyZiG1tbWeKEDrPsz8aTSzc1t06ZNmZmZpaWl+I343nvvkRgg29vbMxcumAdygS3dNDMz2717N3nhWP6bV0EQfvnlF5VKBWqEoaJQX18/depUOgZHo1QqV69eTX+6BDxLNZuamjhDdHNzc+Yee2Vlpb29PSerwX0hPz8/zIcgCL29vfQCBfBgamoaGhqal5dH7zt1dHTQr3zSfMuWLVLXKAhCcnKyoaEhiefIg0t+KpWKuUInhvgHr5yooCshIYE/xx03btzgwt7mzZtlLpYC/6DZ2toKNnHFa46Kiurp6QFg3Ozt7QXHAXClAgMD8bgB40Vh69at9OogQsjf35+zSZ6SksK5+cS4HHMxdEdHR1xcHL2Pi9O2tbUNCgr64Ycf6LsKXIWWvIpeurq6jh8/rvrrb+fOnVlZWYWFhfK3skE2/GZtbe3gfr5KpUpKSiorKwMzcSlbtVpdVlaWnp7+5ZdfqlSqI0eOyEnv0qVLaWlpg0+YSqVKTk6ur6+X8l9XV0cfAMZMkMJgnaScAH1jY2NOTk5qaurg+rZKpYqPjz979qyctLGfJ+IVe/nPCnFxcSRzpOzj4wO2IvBe1r9QLh2vWha5vb3d1dWVJBLLlpaW4tkBsPI85JqzlqmwzHS8sqoylK6mpgbsK2NSB3/tsTXYjnzllVdw19MWdLxqXOHGxkbmqv3MmTNv3LhBujt48CDmGyHEPGpJ4odR1vGqWTEfPHgwefJkki1R9vb2pseoYL2d+cGZZuFlo3W8yi7Vn0B6/2Pw3/xcu3Yt0wtYeQ0ICGDCnoZSx6sGVU1MTKSfVLyjQDsCuyBaHHugfcrU6HiVWSjh7t274F8PRAjFxsZK2be0tICbID8/Xwo87Hodr3JLunr1asAT2MoGjuiHm7M0BmyfvKnjVVYN6d0eJycnviU41e3q6srHD2+vjldZ9aS/I2Lud2Ff4BsFhFBSUhLu/RcEHa+yigz2Cm1tbTlm/f394J8aVCqV5PEdju1wdel4lVVJcOguKCiIY0ZvIg15fJPjTbsuHa+y6gZGTB999JGUGfhUFyE0bty4f/lh/cf5JqlEdfpHjx4BXr28vJhlKS4uBsjBE3ppaWlM8FNV6p5XWeWl2QJLweK3JPTZ4H9zjYm8Eh2vZDUkZUdHR0CtjY3Njz/+KBoUFhZ6eHgAAELI0dHx0aNHkk6fZoeOV1nVpf9VQpFFa2trqbPBL7300u3bt2V5fwogHa+yilpXV0c/jhzNnDlzhvxeXVZgbUE6XuVWjv7yQIpXmZ+Uyw2sFU7HqwZlk/rUBRPMPKKtQYDhg+p4Hb5aPkuedLw+S2wMXy46Xoevls+SJx2vzxIbw5fL/wAl/giYXyy7hQAAAABJRU5ErkJggg==;" parent="1" vertex="1">
          <mxGeometry x="2693" y="2552.87" width="82.63" height="40" as="geometry" />
        </mxCell>
        <mxCell id="fLMCegYD0Tb1E4QCByGs-109" value="" style="shape=image;verticalLabelPosition=bottom;labelBackgroundColor=default;verticalAlign=top;aspect=fixed;imageAspect=0;image=data:image/png,iVBORw0KGgoAAAANSUhEUgAAAiAAAABCCAYAAABuKm1kAAAAAXNSR0IArs4c6QAAAARnQU1BAACxjwv8YQUAAAAJcEhZcwAADsMAAA7DAcdvqGQAAAASdEVYdFNvZnR3YXJlAEdyZWVuc2hvdF5VCAUAAElVSURBVHhe7b35txVVtu+Zf0L9WDWq3hj1amTdV/deb97MvGlzM+37vhcVsQMVsUNRRAVBWun79qCAPaigSHdQAVPNm/ZdqpD5/pio+ZlrzR0r1l7R7Oacs/X5wxyf+EasFfuczWF/554xY8WvPn7xf2Yf75B4wTPWwo8S/GiA+WGCH3bC7Q3I2D7xzwn+uSP+ow+USOp2fhBzW84Pyihjx5rHKnhsJPl8AzK2hEcTPDqq/HuJTvNIgke2SShjneBzDcjYPvH9BN8fYL63tZ3vxZSxST0GfLeC7ypPeMa6F0qYHvK6ioyNeDjBwwPM4QoOV3FLAzI2pXvkr0gyMD2IgZtWM/cxaBqTDPej2bZo02LUuu2Z1EF0rv9Roh0xuXA/mnOooZdqi1g70+yrFlPQbU9MLtyPVhP3MWgakwv3h5pA23ZftBixbnsmdRBl2ngkodm2aNdi7Ent2ExbxNqZcJXG9ML9aLYtMErd9kzqIEZaY3bhfjTbFmOuxXh12xMjDverYQcx8vpEiXaMNSYX7kdzTjR0Oo+OtZiVbnsmdRB1etjT9qPZthg0fcjT9qc02xaHIqNP6iBGWh/0tP1otom8ApKifNsPKyKYfYEc9zqsQLRoMcbHSTJiaiXDwnRMC0kCkrRxaLZjWnR4nKRD6Y9rcpKiRe1xSSRS3FGyP3lconA8D01oQooJa+VDdGVFxMJ0zBE6TpKg9Mc1eUjRot/HxfSTOiTHfJAkxCQpaoXpmKN2XBKRYD9JhnKbp2mSkJBUM1L7lRaixYRblY+QNg7NdkyLhscx+wL9cTTbbbQY4+OYfkytfMi4ygqIxSgf14QH+uOarKRo0XZcEofCca9jUt1I7RcTbtcSITnmA5OPSZLUCtMxx+j4sNEfR2vlIqZF3XEShxRtHJrtmBYVx30F5B9q2oNKTC2mM2hP+dCuJabcmH8v0c34QYKca8woH9JVPAblg17pNWY9qDxaQTXoXikf2rXEbDskZpbmCRnTKzHLlO6d7yfoDNpTPrRrKR/0o8X3EsS0x4zyIV1FTI3qR0jMun88XqK742El5pZrzt03DjWgmFdTDieIWQ8qD1VwGG5pQDH5pB5BHmzxxzZNtSPF9h6QgJh9TK0qDChJNspYqFjElCShloxN6T6QikVMV2kwUllI6V4okdT1xOxjJiscA0KShpjHRpOSFNSSsZ4kETHDCsPIs1jRyHWaJBllLFQ0yigmXEvG9pmYfxm1ujCgxPRjlvaADACpXMR0FQjjiT5QwrSYbltFIyZjU1qI2cdMVRoGhcMJFioUdZRkoJaM7RNJPoytHhA1cR+DpjHJcH9Ks21hRh4bfEEH0bl2lZF2XaykdNYDkseoazEJ3fbE9ML9aDVzH4OmMbtwP5pti561GLFueyZ1EHW6+54Px+60Rayd6VZpTC7cj2bbok2LCei2Z1IH0W+NyYX7Q02gbXtMtBivbnuaNmLMHFMtocYdRP+1q4y062IlpUxjeuF+NNsufukB6VX/nHo+CCojtl3eAyLf9H9OlRCtXHRLSRJqydguqQlOCV2FolNK4pDUvVAioiYyvuJRWgkxytixJslCGbUSMVqUJKCWjPUkaYhJkjQ4lMQkIElGzPJeD6OEaTHh0ayIYPoxSaoGlZrQhCQZqKOMHStqwlNCV8GooyQKSd2QYsJ5BSTWnoyNiNmXkSRpUDmcoFYymlISg1oytg+MekCciQ+axtwcc80xtFI+tB0rNGaMVtZp6+mItY2r1vReOOaaY2jHUdbyoe2Y1vRWuB6QXHMM7ThYml4Nx1xzDO3Yo5YPbccKjfmildUaU3Ns14xxvRZuf/famWe7ht1pzM2xXTMWrZQPcccKLduqlSOr6b1wzDXH0I6jrOVD2zGtMTWrdBR7QNyY3rX1cMTaxnWm6dXgd8DcTHMM7dijHvJaTKpUy7ZqZbWmt8Ix1xxDOw6Wzns+cs0xq3xoz4WyQst2Uiv7q/NeD9PWA5JrxlrlI9TJHhBM/udS+TBqpaKMkiTUkrEp3QfmiVJOV3kooyQKSd0LJRoS04/5Sw9IBSUpqCVjPUkiYpIcjR0l8aggSUbMygpHQUuICdeSsX0ipl9GkqpBpSY0UEw/5iBVPGJq4hPRVSiMkhgkdSeUMC2m21bhiMnYlBZi+jFJjgaVwwlqpaIpSRTqyNg+URMXz598DwiBtm3VYsy67ZnUQfSuXaUj7gExYnqx5hxq6C1tEWtnmiOqxRR02xPTC/ej1cx9DJrG9ML9aLYtetZixLrtmdRB1Onue0Bi7didtoi1M+NQY3LhfjTbFm1aTEC3PZM6iH5rTC7cj2bbYsy1GK1ue2K84X7VEmrgEmjbHh3tKhvt2ioiRWJ6sWbbxS89IL3q/3V7QHxg9jGPbjuebV90MJtx7/Lsikvuyk497fLsf/s/f92K//br32ZnnnFdNvHmGdnyGS9l+zZ8Kub7j0LFohWmY3Z5nCRD6Y9r8pGiRd1xSQqStHFotmNa1BzXhCaiViYsTMcsPS6JQ+G41zF3lOxPHpfw1AQG6nFn+sZCJUTGVVZELEbpOMlCgf64JhMpWvT7uJh+UofkmA+ShJgkSa0wHXPUjktiEpAkQ7kt1+0VEXc8WSERE861hOmQHLMwHbPhcUw/JklVK0zHHKPjmtBAfxzTb6uAQBlXWRGxGOHjmuBE1EqFhemYreOSKBSOe031onA8oh0XE26nhI1Ds+2JySvZF2oh+1q0iPeP0fHhmP44WisZMS3i/ZIYJHVIjlmYjtng+K8w7bznop57Vv8lu//2udk//eufCglHk7jgvPHZ+qdflw/YE5Wvg5nFfG35B9nv/uOC5HnZ/6ocxyCdgQcVh1gnWdbT0RnpvciJueWac48Z5UO7ivRYtNYB8cS0U5z78JbkvwFx49UPZu9u+Vvl/G54eMt32U1y7tRrdhKnSJJ89lnjsjtunJHNe3go27XyIzFN19/gjL2CmG5KNyCmViSv6bSj6V6IefaH4XofRjVmo3x411I+2PvNg5u+zcZdVf53MO6qB7JDm74Tk7MejAGhfGiHxMzaiLkKMe/+03o4eiFm5rSjaUdeq2sONaCYVbekxyImpt2U90x4Jvn3RnCs6XmasnT9D+OWBhSTHy3mPR+5dpWOejbuATm4+evsrpufzP6P/+ffkv8QnQSJyAuLD+t5UxWMFOsSEI6TbDAeFioUdZQkoZaM7ROpVMR0lYYyUmHolRJJXU+SAOO8R8oTEJKEd7f+TceFlYdeSVLTjwQkFX/801XZose2yzehHzS5OCav1zMlKaglY0tIUhHTVRjq+da6z7P7bpuXvbzsWKPxjlbBiHUzknTELFQ0CjpBMeFayliSi+oE5MHs0ObvWuPLiOnHTFUaBoWYfsy2ioeMHRRSqYiplYYWT5ToXihhFBOu4mExvuVP7swenrRU52DyZaSCUJeA2LjR5nAFCxWMmGL+tWRsSveBJB/GRj0g2xcdyv7zj1cl/wG6DS7RPPPQxuwD+Q9U9/qYZpMKSGzwBR1E79pVStq1I6YZ7kdzDjX0lraItTPdEdViCrrticmF+9Fq/j5CXVUB0QREKyDl87vRh0cwAbE4/9zx2baFw/ramCi0wJh12zOpgyjTxvoeEDHypHZM6QMbvskembQk+7/k/9Vv5f/DS0tIQMLxeXSqMb1wP5ptC4xStz2TOohudaMERCsgxXloti3GXIvx6rYnRhzuV+MOYuS1q5RQzWiiMblwP5ptF4Pb8zEsicemufuyc8+5Wf9eLHngOLSIdX0FpDi+V53q+TBNDGoPiLG9ByTv+SByXXIXjBFDXTPz1a4utzQJqikz7l2hSUi/KyAxtZLRlJIU1JKxfaImOBFdpaIpJXFI6l4okdCNKyC+YlLZA9KQI1kBCeP/lb/zFU++qiarlQp5/b5QkoBaMtaTpCGmqzi0c1jemzkPbc7+9d/Pav0emoAs7aQC0iklEQk0SUYZCz0flZQwigmnqAlIxd9B0wqIEbMvI0nWoBLTj/nTrojUURKIHnh4y/HspWUfZFddOrnw9zJZkodWZYSxnph9yEGtgBiHE9TKRVNKMlBLxvaJmph4Rj0gzuxNb5yzZ8SSDwuSkIXTthZeH7NzzDUVjroKCAbsDNwqEAmtrNOud6Nd27iiptfCMdTOPDlH3pPhTHzUtXx4OxY15uYoWrZVK60Hw80JdWc9IO3zu9H96gFpEiQha2a+7kxWDJafQRMSzDalldUaU3M0TW+F046m3Ws20XwbXfnUzuwPp1za9ju4CshRPx5Tdb0cTXXe+5FrjqGV8qHtWKFlW7WyP/pg4wqI77nw5xhzLf9Wjk5jao655hjasd/aejlsf2eaXg1+B8ytXcPjOhbt2KEe8lpMqVTLtmplc/36yr9mt4+bkf3vidaBvAJiPRhuTqzrKyDV8zvVee9HrjlmlQ/tvVBWaNlWrRxZTS+HY645ZpWOKl3aA/LasqPZqaddlnzTw6Cfg7tc9m/8QszMVTKoaLyz/rNskSQW5559Y3JeGLzOrpUf6OtaxSPmLz0gKd0LJZK6nSQBxp9bD0gqnIEf0WTjmLx+x5QkoZaMjUhyUcaw4gA3znk7+bMTvVdAJPFI6jRJOmJWVjhiignXUsb+0gOS8+dV8ZDEoWdKmBYTRu/f+G12w1UPJP9WCK2AyBxMvowkSYNaARlOUCsWdRTzryVjU7oHknTETPaADG/+Nrv28nuTb7gFpr921utiUvJtP5of6qPP/5jNk2/NdZWUeyc8Ld++7e6Y4vkwyZ9fD0is8xhxLaag256YXLgfrebvI9SD2ANC5YUxzCMwQdsmDoopvb3u82yTmPZd42dplSN1njAuu+jObN+GL935xIj1XJ5JHUSsUz0fpon2HpBYi7HrtiO6NgEp7QGJtTPhlDZierFm2wKj1G3PpA6iW/1LD8hIaVfZaNeOscbswv1ozomGTlvE2pllpRZz0m3PpA6iTGsCcmV5ApJXQNwci7HWqR4Qti0GrQckte5HrNm2CHtCkhWQ+Y8MJf/BLM49e5yrWMjYsopF65jXm56pvpxz0u/OyV5Z+n7p/K56QPx8TUZStIj3S1KQ1CE5ZmE6ZsPjmuBE1MqEhemYreOSOBSOe00Vo3A8YuVxi0ALO+oBkfH9WAekrgKirzuUqLz4IEkISWIxafzM2ju6SLa0YiHzkrSoOy6mn6SNQ7PtSZKgZJ/XbIdsVAHx50jNbx3r6rgkIsFxkoyYWvmgehHqmIXjEkYx4ZTuuAfEwrQnJq/0x1tayL4WLeL9Y3RcExkoph7rZEXEwnTMUTquCU9ErVRYmI7ZOi4JRYpUPSqO799EBaT876W2B4R9XrPdRosxPj7sdUitXFiYjmkhiUCSNg7NdkyLDo+TeCgl2tYBObTpq+ySC25L/oMRWm1YeqQ1vimpDsx8YG3ynBZP3bdGx2N2MZv1gMjrMB5ixo1pPR3dkZ4L1/ORa849ZpQP6yrSY2G9HqYx7SYci3VAhmt6QKwCkj/TpZ70FTxw58Lk+SzOOvP6bM/aT9VwSQ6aEjMr8kRLY+Ku56I3bpzzVvJnJvIeEMZjrs0YrvtRoLxXzqArKB/4Sd1H/mTWAZEP7Spiarbux8is/1HW09Ed856PnJy7bxxqQDGrpqSnAu7b+E3DCoj1YIwNw/U+jMMhtzSgmPpokQpGkdYD0r7ORx1/ZT0fxhVPvJT8x7KYPnm5mq1VJjrhO+s+y84+6/rkeYlrLpssfzjfJec3rYAUKhdllCTBeGTb8ey5+Qey+2+fl513zvjsn07KqzRUbM47d3x2/23zsi1z387eH/renYP5XZAKRRldpaGMYSWiW0pE+ti2E9krkkxOvXOR9upwazS/N6S3h4Rw7/rPNAlgPKytgKQqET2y0woISUbMYwkOb/6bmlbqnBbPTt9ROr9FSQpCvr3ms2zp4y9md944Q5OY+JIPt8qecfp1eplz5v3rsl0rbEE0mS/nhFpdqGB/e0B8RUP0AfnQXvnka9nkW+fI/4ebC3fXEFSN/vNPV2WXXzIpe/SeZdmLi98XkzgeVCxIkKDpBMWEa8nYiN32gGD6ZQwrDCG5bLf8ideya+TfKHwPfveHi7Ibr5maLZf3iKbYsvlNSdLy6rKPsofvWqqfP/xt8Dq8z2eccX12761zs20L35VxLhlgHuxnD8i7YnQ7nn1f18U4/7xb5O/1j63fl9/9wvNv1WM7Frl/69rztfGEr0xICA9u/j7bOHeffOYuzC6Qc/Oe2usRNIye9sersqvFD56Ysk5+tiOtZCWvcLjqhGox4VYlI2AvPSBaXRhBkny8vuqv2ZypW/T3PPnUYr8lmv2zH9qifx+WrDB/OMFCxaKOYv4pHtrM3UIfZvfdtjA7/fTrW427/E1y6/JDE5fI58qHOk7PxbwGJNmISfUD+gqIM/mjzx/Pbh83vfBGhEGz6JsrP26Nt2iqSVwevWuJLtvO8u0P3TFfPqh3ZM8v3J/t3/CFvj7jMMlwHrpJBSQ2+oIOAn1gw1fZtEmLO7rLh7HM2b/hS38uV0HB5Nx505qS/7lnlTfjbn7mbR1rwfyUppcmNZ/g/PxcyfliCrrtid6xaDi7+PzySpcFH4QTb3pSfoevdN5PsQekSg/N35/99/9xcvK8BOcmUdHxYtA6HwZhetfyj7PrrphSe2knFaxD8tz8gy3T1OTAB5qf4cYK860Lq4qQbLjz54F+a+1n2aSbZ7YMsJP4w8mXZque2iXf5iURkXNhrLCQAATRre6kB4Q5Fui31n6RnX3muNJ5mkzIuENbvldTiBOvVPzm9+dnc6cOyYfq8bbXK2gxXt32xIghxnKVmEzq3HGQnGyZd0DNdfea6t9lP+8B5u9DE4GC9pURORfntHUxmgTrQbGIF0mLnQcTZNuiTO/b8G326N3Ls39p8N7GQUKy/ImdYsI/qhFrkuEj1Otm7UnObxrurhZ3Tou6JtR4fJVmLZI1s3ZnF55X/9kbxgUynnmHfPWAc8YGX9A+Zj2wOXk+Yo28V4xh/EtLPsyuvKT+b5Gk5OrL7s1eISnyr9G858Pugsl1oQdkz+qP5Q/syuQLE3ePnykG5hpFUxWOkWSnPSBlFZAPdvw9e/ax7dlJv+38P4HFSfIfaPXM19TQ9dySZFSRZKfqbiBNQGRce+WjSJYPT80nOL8mIDpeEo0SHtv+d+3xsWpH0zjn7HGS5B0byLtg4gqIkWQhJhWKkKyjUdVwfep/Xpm9vvKjtnkhMfGVT73ayLSqgsRl+j0r5EP9hJ5bExtPfs7eExDfF0JiE5DE57SK//dNY6IkMIckUdLkQ85bTQnTYsZNKiLdVkDg2+u+yM6pSkC0UflLrW6kxlTFPbfM0fmaZMjr1ZF/3+VPdv73QnI468EN2RurPtFHCqTG8Lsc8EmYJhwlZAzVlW6SZeK2cTMkqfsyef72Csjfs1eWf9Sx6abiTvkbI5HJKyFFrptdfmmySVAVIVHQxElI8lSXgNi4OlLxuEa+oKTO0zTGXT1VE1DON+zPm6JVPGY9VJ2AcJlnyeOvdJwUnnzKZdnGOfvda0ky0QlJPoyFHhAuM1T9QS6c9pyOy3s7XHLQb533fuS6WQ+IOwdGi/mrVjr9/nM/ZlPvfLbr/3RhcI7HJ6+Qb75/F3Oz3g/3OnlPBhUHKiBf1FRA3grGw3B+rquqD5yfSouOlw9tRz/fa35Wko9uf/9TTr2sskLW3gPifoZedfMeEDcn7/VopmdMWZ08r8X62bsLlQ4SjlCve/rNRnfWNAn+bZ6Rf2czT16DHg13uai3BOTFVgXE9XZwfi6h8O+amtNN0FfDt1R+fgzX0Xo5etO9rANSXQF5INu54qPsykvvSR5vErPlgx7T0tdr0b9+oNmeP2174TJHJ8HfxwN3LNLLM6njvAf7N32jr2WVj7ynw1Us9m34Jht/7bTk/E7ikgvvEFP9REzPVUMwP8ei3iXGe8F5E5Ln6CbGXf1Qtm/9t2rsrgLiej7Q/amAWI+GO2d9BaQ4PqWfX/iufplJnaPTOPPMG7Lti48GRm49GqKVua6rgMx7ZHv26y7/Fs85++Zs18q/ai8Hr2WVjU50oQdk7tRNyRci/vv/d3K2feHB2krFSLHXHhBM7aGJi5Lzuw0+DB6etFiNXV9Lko0Ue6+AuApG5SWY2grIP7INc3b3zShTUVaJ6JUj1QNi5Pbc1HktnpiypnT+7jV/1X6O1Lxug4TgNe0LcUkSHIkKCMu3c505Nb7b4HLW5nn7XOWCJEdex9G0hJhxLRkbsZceECogZQnIZRdPanwppCwwFy6p1FVAnl80nP3rb89JnqMfwXtQVQHBDO+/o7r5upOgYrR/g3u9VOXj4Jbvs1tveDw5t9vgMsDsqVvE3CXx4HXEhK33Y93s3hIQq4CQPBl7rYBsW/ieVgxS87sN/t62LaI3xiUhVvGIWVUBuXv8nK6TD4upk5bW9oSQbMRs6wGhn2HKbXOSL0KcJr/w7tUfazLAeE0OfPRbY5rhfnSvPSALH9la+c2fyyqPT16evbPuUzUyLq+QOMx+cKMeS80hOOcCOTevhdFDTM80rz0IPSB7132WXVjzLYQ+BFa/pZrAHIx/g2j2p8bHoYmAzMGYNRnw0aseyR4QgoZNDDp1bmLyhDlaMaDaofMhJi4ffo/evSw5h+CcSx9/Kdu38etWxeTw5r/JB8fhWuNfMv1FlyhIYKIj0QOy+LEXSv9P8A39qfvXy9/NF2ImJ3TO4aEf9CF3rCxZ9X/p4UlL2hIA3fbRrR6pHpA4SEaeXzgsH6A/6Py313+pv1Ndf8ych7a0Xq/w+mLEcN+6r2sTHXo99Fr/5h90Hua+ePrL2meTGh8H70FVD8iiR19IrgpqQXVhx+Ij8rtTVTiul3vuv2NR5e/++JTV8rfhqh68Fqbotk9kQ/MP9mxyqfjTn67Ndq74iyYdGL0mIRKD1gPyxqpPtX8jNdfi0osn6r/5gU3f65x9wq3zD2VXRkvHx8F5X5fzm7EXDN9HVQUkjH/5zVnyRWt99sbqz7ODklAc2PSjfPa/U9sfdNaZN2a7Vn2mr2WvW7XuR1EHPSBHn/s+u/ma8v/cfMM+sPGrYmXCwnTMPh7vqgfEx5ur/lL5ML3zz705e1OSK01YmGP053lrzSfZRRfcmpxLcG5eQ+cxx+ij6wqIhdf1PSBf+fGSeOhcT9GzHlifnGdx07VTxeS+DebncUj2czw1LwxNQMIeEAvTMRse77oC4ue3tJB9LfpgkTLuVkmdm9AER84fz+cW3bJ5zvCPuPGSRMSkolF1B86U2+a2EiWrWITsdR0QejXKel+oYqyZ9UYwXxKWYP57W4/rE3dTcwlNBOT302qGjNdkpI0WosWc2yog0MahZbvjCoiF6KoeEAuSqifvWyf/1sczrVhYyHySsGfkW3dV4jXh+sfEAFzSEs+Hz1YkfMQt103T6kU8n4Rmz9rPGl0i4j1oVUAsSD6EJBNnlvy98nNxxwkVEhsfzl/79O7SnhWr/ti8VgVEYvq95Zc3SQiXznjF9zSQwLg5rN/BXTJ1ydoTU9a2ej8KFBO289SuAyJzMP2YWsHw0W0FhPdy6l1Lk/MIEsEZ8jsc3Pxjyfwfs1kPbqpMGDk/Ru7GS4SUqKqAWHAp5eVlH7qkhXlGOc9O+Zs5/9zyL67/t3xWlPaCWHhN0lGgRKsH5PCWb7LLLroj+SIEx4a3fK3JQN6z0R9icjEx7hblQ7u2ArLMrwOCWQekkvHYPeXfUk899bLslSXv+/GulyNFkpAzzrg2eQ7ioTsXyAf0j/qaeQ+HY/MekOK8mPU9ICyHL+PlQzvkwU1fZZddWP5ve+H5E7K3xUzz3ot2cpxxqfkW7T0g/WHf1wGRD/WQfMs/p+Lf59ILb5fk+2s3HhP2XPXUzuR4gsoIvQuMcz0X7Vw8/YXkXIJqB4lfPh4zzef3ug7I9kXD2T//5szk/NvGTZcPiO+z1jNgfAUk5ND8A/rhk5qPsby99gs3XoygX2yyDgh9InkPSM4mFRCaMkk+UvMht3VyW25qLsG3Raolec+HI6Z2YMN3lVUvGjTfXP2pmjjjU9y58i/Z6aeXfwYRvD95D4j1fjhi2Kk5BJdJDkjyxjiSAX52R6ephsx6cGNyLsG5894PxwOS5N4iSVlqPHe1vLb8Izdezt1GMScqOffdNj85n+D9dL0gbjyGH7Jf64DUV0DS815a+ufKvo8pty/Q5KNqHRCSi+mTy5O4f//9Bdnzi95Xk897P3LWVUB0/oJ3S+fDZU/srEyCnn5oi4wNezuas9UDgklVfUunOnJk6/fFCsUosq4CopdgZFxYuYCsY1G19sj8aUOaZBQqH5BzRFz2+Iul32C4RfmNFe4W5XgelYnOKiBWuSjqbntAnl9wQHt4UvP4fXRJfUn23HgSl3ayoumzj+1InsMirkT0i3UVEE18fIWC8SGPNeA7YhpVCQjH3pH3Np6HmR/Y/HX20uIjul7IFDEwKmV86Ly45L1CxUPnRNwqJl52CzC/E5ddwspDyH6sA4JZ02uybMbL2YN3Lsouv3hS9h+nXJKtnrnLj7PKR5EkIbtWfiS/5xXJ1z/nLElA1n+h45KVjRQZm9IBR6oHhKAvY/uz70rS5caXkcsNqfkE539LXic17wVJCPl3Sc3j/yDrith4TD+mrfdB70PqHBaFCgjzPN/Z8E1pBUW/xc7dVxif4u41n8tnafr/ySUX3C7/5l/puLyS8V1pBYJKDAlXsoIRcOfK/9Jv6AR3WfH7r3t6T/b66k/EvL+XcTJWzLqbdUBIHlzCQ9JUzroEpGzejHvLE77zz73FN/C2z4u5W5JnGn5T5yEevPPZVtJSqIAI6yogE8fPks+BH9wcSQpSfG35f2V//NM1yfkESU5qHklGGdt6QLi80igB8eM1OfDRb41phvvRHfeA+Fj+ePnCamfLf4K9az8rjCfatauoHNz4pf5HS52LIEFgHOanyYPnWPeAzH/kueQc4pyzb5Ik7Qtn9j4wx5Tes+aTym9gmoBoBSQ9v1vN5YomFRDmEZikbTfRe9c1SEBkjCYOmLdnmW767BeaQstMidekMuPG07PBHEd0/bNgXL9HPj+PMm3E9GLNtgVGWXVJg9d/cfFRlwBIMN62e9Ej2QNylZjzPjFpGx/Pt+0VT5ZXvfi9X5Dfu22+GPKzj72YnEOcecb1enlEjR7z9kxpLnWcclo68SN4D1I9IDuePZr9e8nf2sXymbaX5EFMy413NI0JKsXk7r5ldvIc//xvZ2ZbFxxyhi4BSRDKKiAEj8cnMWNtDMZr4sB8z4IOok4Pe+7r07Ng6hKQ1Py35POC9zU1hyA5sfGYsc0zzbYFmrtVUuch6MN4Y7Xrw9Dx0EddBWTpjJ2F8USs31r7dXbFJeWX/+6+Rd4DP4+o6vmI9c+mApK6C+aDbSeyu8bPTM4hHrh9vn7D10SDeVXknMJH7y6/pnf7DdPlA/p4YTwcy3VASEbuvbW8uZj355j8zGEFJCZJAHxv6Pvs5useTp6HGKsKSPy6JBUxj1Ww2wpIKcX0y3hU/iZfX/GRfACtkm8V5X1JLgH5UpMlTT4i9ncl1DpKIiI8It8q96z9RG8TrmpM1gREXl8TFuYpJZJaQky6ljJ2JCsg90yYrYZLsqWJQwk31Fz6wlBT8+6/o/xSQlvviKcmMlDM38h6I3XvQaoCUpUA8fqHtrim13heTFbmTJ2DeGbqVh2nCZNnVQ+IBWtQ3HHTU9myGa/pt329pKLzJZHohmLCeQWk/L1quhJqNxUQkjGSstQcLntsZ3XXxLwyvrLsw9LE01WwfB+GjA9ZVQH5t9+dn2171l2+0fEhOYcn665cf2VFIkcCEoyPSbIRM6qAsARztUlyTJtQ/XhHlxz0qjE3x1xzDK2UD+9mPSAyHrOW8fDQ5m8qex8WTHvOj7deD+sdKddrZ76ePBdx3rk363uU9244Ex/LdUDeE2OmQpCaQ8x5aJMYp/VcuDlV+sE7FiTPQ+ilEK1END9flcb0YN/XAZEPc0en63pAuKRABUTHY8rMV6Y1pufIs5W+y55bcDB76r51uoJg09ug+XkwTc7pejfceU036wGxSob1fqR1/uyXXHMMs2OdEJovb7pmauOFszQBWeyMmCQg7+XoTTdZB6TYA+LO0aQH5H75MhKOj+eb3lCx0BUVBq2AyIe4jhcDhiQEN15d3sTNNX7GWqUDE6zSVX0RvAepdUCmTlySHE9gxOHr5D0guVZjllgz683kOQjM2I3Lx29b9G7Htx1z1wzVEaoEOxYdkb/DHzSpwIgdXY+HaXouHIu6eQXEejfcOWNdl4Ck5i98tLy/i6rzHvl7tPF570euOWaVECoFb6+rrkLMfmjIGTzmLuMdqysgvz/54mzHs8cK4+P5kMt3VQnI3bfM0bFW2ch7POp1qwLS1V0wo8huekDeXvdpdkbFJYMtz7xdW/GIuW3hwdJ+ij+cckm2a8Wf2+aNZQ8I5l3V/MbKpm68S3bCikdIe6rt3AF8FowmPlEPyLEO2HMFRJICI5eLWJhs0s1PZb+PnnHRSYxuBUQSD+G78i18y/z92svyp4prvnXhKiAuAeqkwpHUAUeyAsLy64wLKxApvrj4iC7BnjpHWQWE5tnrr7w/OYfQ23eD8Zh+zPDZL1VVCN6DVAVksvybpsb3M1il8+Dmv0nyIcmMvC7ETO+r+NLSJLglnEs5m+VbviU32uuhlNcRkx60HpDHKhpHSYr2yd9Eal6Kw8IDXM66rvxy1hRJShnXSQXkLPn/8MaazzXJ0DklZJ2Pu0ouvRFlFRCSjJhW+YgqIPXPgTFztfGaHPjot8Y8w/3obnpAqIqUzaEM9pp8SDPOxlu0a3+ZRlh1Tv055DgmqMmD51j2gLCvylx5bYxUzd5HlR6LZ8GMdA/IW2trbsOVD3XW79BEA9P2DDXPgZlw3aNdPUslFTwIjqSHc2Oimix4ovvZA8ItnjyMsdvVOeP4D/lm9TKXYMQcCIzVtnvRI9kDYmt42Ph4vm1T4SjrpdAEJNEDsqfi2S0EzzjRZMGHVS7KdF0CEveAoKvet37FdVfcr6aPaWpy4OOdDd9qcpKa02m0nglD34iYGIFR2zYx7DmWPSBVczBz1lmx8Vb5sPNY5cPCdO3PERq+j6oKiCYgqz8vjCdSmiQjdQ6CHhDGWHT2LBj5xo/JQ24lTb0AQaf2c/P3FSsTFqZj9vF4Nz0gmrT8oWSO7NekhfEkFyna+dBsCztJhCxGbx2QqAKyQxIQLq1VJSBzffIjY1vzTPsgCTB29DRcC9MxGx7vugfEz9dEI0UfmCXmkTo3cdsN08VUfkzO53IFi9X1K/GwIKki8XIVCpc0hWxUAWFsyXxIIrKii2eS1IW7C+ZLV83wr6PbykBbiEknaePQst1xBcQHSUBXFRCLYH/V3SyagIQVEB+a/JQ8u4Xgsk74OprAQD+fJMLYUQXEB3o0EhDeXy4taMIkr0t1Qil638bvsskT5lbeztlJ6DNhJMEo9H4YxYS1AjKG64DUzgnOn5qfOl53zmEZV6iASDSugDA+JOewEF352mU9ID5INmJqBUSi1QMCl88ob1Qi5ov5hOO74ZAYHt/unpqyOntz1cfZB/IfCnPjeEiMu0X5oK81/sQ6IK8sO1Y6hwrIq0uP+vHt636Ukdep+gDiNeP1O0ZtHZD17euAuApI+Ycfd8jkPRj1rPoZ2ntAuiM9GyG5jMS5U69JWAUk7/WoofzNhdw8d2/p7dXEI5OW+EqHjA9IUyZJYdXcbqN8HRDHXtYBsZ6PtfoMm/6vUokRjcQ6IAdGcB0QKiCpeTGrKiDtPSCOevtqxWsveuwFTS4wvybkuTOp8xC8P/E6IOjRSkD4XfMeEM8hR+52oZkSM+vH3919ty+Q/yM/iqm5no+QmPZYrgNSNWfSLU/Le3FcDNiNz3s+POVYilQaUucjSAJ0HOYesFkFpH1eSHo2qisg1gPSvs5HOY8rWxUQKg1aZSipGBBcojm6zT0yv1Cp6ICP3VO8i+SfTvqTPsJ81VOvao+JJSvhPJKQbnpAMP6qNUAKPSDMacCt8/eVGg7L1bdWVJXxVC5gXQ8I64uElQ6ShxQ76wGRELIy6biK689hDwjVAqWYcsyfcw8Ijbip81rwqPnCPEkK4I5Fh7OTfte8wY4qCXePTLtrafbc/APZ8wuGS5NZrYCM2Dogf5e/079mp3fwDBv+5rldlBVauRPk1RUflia2Pa0DUsGmFRBMn/EhWZ+jMgFp2APSUQXEc9+Gb/Q239QcgooG40gWYrZ6P+RcpjvtAeFyxZ03PZUc38/g/bUKiKtIGKMKhRCz3TLvgC7z3u1zUkhiNs3b16p4FCivMZY9IDMf2JAcT3TTA6JrqlRcxnpw4mIdV6iACPvRAwIr34OoAkKSEVMrHgm2ekDg+0PfSzJQ8Wjy0y7L3lzpFtvS5MBHU31o01eV62iQLLyz7jMxPTfHAt3JpQ81fonD8mF0TUUDJk/3ZZyNt8CQ0/ofleuKcMcNd95ggppMeNb1gFBVcGNduPntunEPiJiMzhW+v/X77KZry2+dnXaXfLuXcWr2Pqo041PnITQB0QpI+fxu9Ej2gLy79QddAjt1XsJVE465pMMHRn5Evt3dI99kUnMsMO0rLpmULZ7+YrZ79SdipFQeZK4/R9U6IFRAhuXv142nV4M5jujmPSDOhG3bNHflpOaGcZ4kS7MlOWPtCb5NWyKAsVatA4IRUQHR8RKMt+1edJMExFVA3BwL9Kj2gIjx6njPuh4M7lDRZMFH3PMR6/q7YIo9IJhs1ZypYl5urKuwYHo2L9b8LGi3ndLONDvSYkZcsuM5LlwWOeP06xtfquH3Yj5Jh3HYcyx7QJbNKF8vhkXVSNRsPGZs80yzbYFR72FdkfPLvXPhtBdcAoC5exJj0wNiPR6xdiztAYGza54ZMn3ycjXisgpHFZdXrCRK3DvhaTHOE8n53VRAeloHhHNExNCZkzoXcdfNM/U143l1FRDK+K5yIZGkJBPCByt6dJI9IA3mUdV6/7kfZZxPWqh0xJTfmwrIe1t/1GW6U+chBqkCYjxWQx7DXvU4+lZyE817e3114yq3ZO9c/qEbL0mDzo24fdFhfQhUav5IVkBIbG6oqIrxfgzN36+m7+Y5aiLjuXvNJ6V3yrR6QGRcL+t+xOy4B8STJKBfd8F0UwGBnawDoglPSDF5q4SwXHrde5C6C+aZh7cmxxMsLkYiEI7vhJogRSxWQOooCUNEKiTbFr6rBl/VX0WPB5WOvAIi85VjWwHp5zogw0LGMy91Pl5nSF6PcV1XQBgfknMErHwPogqIkSSjjFEFxHo0/me2Wx/cVr5+vZr90iOt8fH8Mr1v/af60LfUOQkSExoiGa9JgdKdA2Ns1gMi4zFtGe9YvRIqBuJWQrUeD5uX1gdqVkJdyqUUmZP3bjhTr+sBmfPQxsL4eD6axcK4tTM1n3A9IFYBsR4QN5+fKzWHYGXTPWv+qmMxRUfrySjqupVQNRHQSkR6flNNr4aj0817QNw58p6PEi0f5hCDqnqaLcHy8zoe85Zw/Hv2Mt+ES27HZHn1LfPEwP0c13sBqUDkumpRK9cDYhUQ17MRzu9lHZCqh+gRCx/drmMxRMcTbZp1PsqM2CogOl4i7+XoTtN7AeuaKTnW7TogrgckHx/PN91JDwgG63ii0UqojMfUGe/Yrl9Z+mHlJQveg7wHxOYdz7bMLX92z5WX3p29s/6b1nh6N8rWAXFspnmYGpe+SCS4c+WhiYt1SYDTxF9uvWG6/Ht+78ZLstGqYET68Jbj2WP3rEj+3MS5Z9+c7V77uY4fZr7S9VaM5TogTVZCtcpH3gPizqG9F8pcV62EetH5t8v/6S/deMyd+cqmFZB8fDwfUrFo1gNiFQ7r9ajS9IAEFRCrNJAszHqgfA174tyzx2W7Vn5QmFdFLu2Mr1hBk7juynt1XGo+SUg3FRD4xqqP9YFzqXlE61kwzKlh1bNguHxEMsM4TYQC8u286smn9902V5OtuOIRkss4LGCTmk+U9YCgq5px+X1WP7VTx2vCA8WcY/7UngVzrAHXz96dVS0Mhklj1m3zJQnY9Ex1BYI7a7TS4cfrXE+SCMgCX6n5xEhWQEhOypIHguTGjc8rHjE3yOuX/V/4pQeks3m8jzwLBrNnPGz1fhjlHJjrjPvWJM9hwXuQqoBQkeKBd6k5TZ8FQ5J03jnjNWG6/cYZkhiszFY+tUv+1j/M9m74Ss00rGxULX5GsrZ90Xt+vM1Ls6rplufbvLPuaxknY/X1PWXuWFZASEJ4RktqDtHPZ8GQzMSVj44rIMypYOV70K8eEAu+sVd90ydOkSx867y9Ys6uWhHODzWVjxuuvC95Dgv+A66Zuas1D9Nk2wLdTQ8I8YF8+5s8ofxavXsarrsbxgLjjvWbK6srQ4/ds1wMk8pD+7NguIWTZdpT84iLL7hNqytuvDNR2yaoEMx9uPwPiSjrAYH0OUy4vrzP4cLzb9Wn3arhS2COtm16z+q/ZmfUNC1qAqIVkPb53Whjv3tAqAjQWFplwsRcMSWdL8atyYMPNE2kZQ+S++ffnKUNqjbPKiEWaNb4uPTCO5PziboekJcqKjD8XlU9IFx2KnuQHLFCElLmWGCguu15aMv32W3jHk/OJawCouMldH4Q3eqfag8Ihsx7Nv7aiv+DkhzsXv2ZzrXKh4XpHYver23Y5D1I9YBgylQgUnMIVmrdv+FbHY/p2TzT/Azzp5V/C9ck5pl3dI4bf0J1WdWFIHnggXQYrf2MOj/QLAN+3RXlSQSLc+2nkiJjdZ7EsHFLzQJaPnlgvJq9j1jXJSBl859fWL0KbP403OI8q4QQVAoemlj++A/34Ev/KH0favw+fjI9IHHlYWje23qHSuoFw7jy0knyjWm3fPP4Ssza9YawqNmulX/WxY2anONOyaaPbvux/efwQVLRVQXEx4vPVt+twKWh8O6VFn3wKH6ecpqaS5xxxnXyAfdJa54mQNDPR0+reIYMCdj8aVvFbCWB0fGSOOh8MWDZXvf0G5Xf1IlkBcRC9NqnXy/9xkrcdO1U+YD/1r2mmK7e9SLz4D75dlNVwbFoq4BYmI7Z8HgnFZBjMr5FC9GHtnwn/8b/pU+trXqOicVlF92Z7ZOksHA+oyQBr6/CxMsTUhp/qWDoHBkPSR7gAflmVtX4StCjwaUnkidNPiJS4ShLoOgrob9Ex+p4STyC+awNc2nFN6oLz5+glR8uXTGepMN4WJLZB+9YVPm3xJNO96z7zFU3CDHhJElqTLMd08Lrjisgfj66qwqIRbC/owpINJ+kt+p9u/Omma56IWavlQ+ZZxWQV5d/pI/7T80Lg/egVQGx4HzCqgfSETR0HpREycaH819a9oF8ASt/dtHVl98rnxPfFSoXrP3B/tR4iz+cfKne1fPmms/EfH/UeZBv/UtnvFz5b0bMf3S7JhupCghBU2tqHnHHTU/K58IPavphxaFFH3UJSNl8LjVU3X1Eo+2MKWs1CQnnDXsekvdh1oObKhtyp09ZrUZeqHyIufelAmIhuvI98BUQkooC/XxNNlKUiHpAcpJMLJg2MmschIGx713/qb4u5md0Bu4pP0uzHhBXuYiJsU+/Z3lyrsVJ/35W9vjk5dk766gEnNDqwf4NX+giUxxLzSH+SRKDDXPelNei8mEVEOvhyDWLjVW9l//t17+VJGWJJhHH5PWJnZLEkZw1+TfQHhD5efV15fcNSQWFZ8KMv+6R5FwLjHnDnD3ZYTE+kgC+ga944hX51nVpcnwcmghoJcJ6Orpj3gPiWNcD0u84Sb61uAqG7x2BmHfA4U1/y66t+XDlejeXYt5/zt1BQiPk3IeHsj80eD/ds2A+16TBekZCcldN1XLpt497PNsrfw9H5LVJvJZMf9GfD0P5Qb61zErOs+AOmM3z+EZ7XH5+rqd/pY/tr1pTxgIjds+CsV6O/vCnug4IRkg1pO6hXgSXOKgcHOL5JzLv7XVfZk/et77xYnGuAuIqGcx3dOuBYOyP3FXd83TZxZOyNU+/qa9PL8d+SSoWT39JE4XUeIJnt/CI/LwXJCf7OZ6a12vwxe/1lX8Vk3M9IyExc1i1JDrViVUz5XeVJIR+kfVz9mZrZu4uzIf1FZDi+JBcnqr6okJcevHEbM2s3dk++UzBsOHQ/EPZFRW3bhM3XP2QeOe38vNbz0Y7+7MOSLc9IPUsrYBo5UHMa5F8M8ccUy/ca3Bb72vLjpa+fuvnEHbbA2J8b2t9H0qnQWKwQN4fkhV9LUk2UiQJ4WnDfKtOnacfUXUXjOM/sleWHNH3PDW/H9FWAekT6yog/QwqTdp4KslPq+JRwiXTXxixBJ1mX5KMsHIREjPmgV2puakgKeC2X5s/tOBAbVWt2/jn35yZbVs0rNUHvQtGTLiyEgIZm9IBe+kBGeu7YFrzF79fOr8fUaiASNIR8531X3f0d9Mk7rtjoZqtXiqS14GuEiKJuiQ9D9yxKDmvl6AqsPDRHe51xLTbKiCey58svx02FamKRl0CEo+PSZLT7yTs/PMmyBfUT9p6PmL+JHtAQk0Ssu7p10vNv9ugnPfy0vf1NTBJNWwfGLZuBwbepAKi4yV0fhAYMHxvy/fZ3eOrv/k1DZKy+Y8MiRnJt3Q5v5q8jzLNpZSyB9k1CaohV5dkxdoD4u+CwSD1dT1VS6CpcPSy9PaE66aVPkZeExDfi6HJg4+m2ohJhpoekNGogGDIK554VQ1PL5v4wLBTmirITdd0n9Rye+Gv/+U/k8foL9k6/4C+FiZK5cLCdF1VLw5tLpV5mOF78u30gTsXJsc1CRKv/3HS6cljxOLHXnSJgwTGa9vdaEwNUt2oS0AGoQcE49V5nmrMPjDFZ6YOdb10P4tvVfUO8R5YBcTW9bBKiOmdK/+SXSAGlprfadDXwrNeeA0LTDfU++X/SdU6JJ0GyccDty/SSxe8n8MSUA3fa9t+ZdlH4jVXJ8+TCl0kbKNfJMxHXQISvh6R0utnv116G22ncfEFd8gX8r84w8fMPVO6Hz0g9RUQ6wFp7/Eo1y4qKyAh922obyZtEnxw3XXzk/LH83Wj14UkIT1VQEhEPEkYFjzyXHbSb7s3YRrBhubtLa18WAIVkiSL12bRsW6+Nd91yyz59vK5GF76A7jqLpii/oc+0beqobYsWFOFu4rKHm73U66A0Ai8c4Vft0Net5IkIJ5vrfs0u6zCEMqCZ4OwEuqMKeV3NbBYWFkFBL65qrPVTOlBcPNdT8chMYYJ1z+aHFsVGO2qmbuyFU++ljxOcImHdWNqKx9G+Znq+FO+CyYkicDCx7ZrMpE6T1mQ+HD3Uacroaa4e81n2bVXTEmeo0nwGXbvrXP1tcKKh6MkBJHmVtOZ92/o+ZlJzOc89EeElY428jMIuaX38XvLL8PEwWWPveu+LlQweq2AGFnQ78oeqk8kXnfc9FTGo/krKx9i8sbRqICQgDCO5KKMNRWQ9nU7UhoDe23p0ezGqx7o+LIM42+94VGdz7oa4fkxRcdcq3FLOAPvfh2QMs0D4uj5qOrviIOxT0xeqT0SnAdzdLReD0y+TJup8gyO1xv3VTBuzaxdYn78hyo3YtcDYnfBWA+ISzpIfBxzvXfd59nEm55slAxxt8WCh7fKB+gJXWukrA+gvQfE/Qyd6rwHxOmR6gHhd+ey2IbZe8SUXX8FPwMG3ap0xFpZ1HvlPZl4Y7P3kirLw5OWqPlzNwy305bNu+bye/046/2g8gFzzd0wLHqWmh8Ht/26CgjznRnS5/PwpMWNjIExE2+eme1Z86m+Nt/2y8yYRtQ3dfVXjNd6OVwy0a3G7OoSkEFaBwSjh5ghPSBWGUFzjOv89HykzhUGxnPLdY/qbZvMq38WjPWAuJ/BekBiTU/Iiid36bocqXOVxYXn3arLqLvLLpir0Rl/leZZMDde83BlY2UqGM881kEprBsioT+HMtccQ8N98jcx7a7ljf7G+Rt5Qxti8/n1FZDi61VpnoezdvZb2WUXT0yeryzoE9k875CYtqsccK7c4K1ng/MXdWc9IO3zYX0FxHpA3Jy8x8MqHuW6cQUkJkt8c/fLlNvm6F0kcUXh9ydfpN8qH574rD6AjvFNzpsiSUivPSAFSlJgxPyeX7A/myo/Jz9v+HvQYMoHxP23zcueW3BAPgSPu3MwvwE14SkhBkBjKrfHnnLa5a3XxKC4C+HRe5ZlLy85ouNIGkjG3hv6voMKSB0xd74J/Vf25JRV2QXnjW8llRgil1n4FrtV3hu+ydqzYLgz5KdaAeF9xqwn3zonW/XUTk3Yjsn5STJ6oiQDJE1vrPxLNkPfywn679h63VMv17tiVj3JY8T/pskDc+He9V/I+5le30UXNJu/X8eFlY+Yh4d+0OoGTbHh5TV+BtYymSjfmlbK73tgwzel53lr7WfaIHv5JZMK5/j9Hy7SRGjBtOfl7+trHU/yQW8H1YZxFf8ufMsflB6QQaqAhHxPPlO2LXo3mzR+ll6WtmSU6ghrRUyfvCrbufxj/WZP0sBdMVUVkBuvmSpJ2N80WdLxDfiuGOQOSZymT16tTai/k3/z8Jxo9nN85wr5WcT0dJ7NT7BYAWnn3vVfZ8tmvJbdPWG2Lk0eV4P+Rf4GueuH44xjPEmMVVQKlJ8nr4DE2lPGUoG4//aFbUu9n3zqZdmlF03ShlVWHCVJCCsX/aqAxCSh5O9u3NVTJQm8qu1noomd47tWuUbbYT8PVlZAAv7ke0D6qY2YYEF7Y7Zo6ci4CzqIeu0qFbpmSRcaE2Tb9qPZthh1LR/quu0Za8zNej4gWs3cx6BpTC3cj2bbomctBqvbnkkdRJ2mchHux+TYtsi1VSy60Raxdqbaicbswv2hJjBC3fZM6iBGSxsxtVizbTHqWgxUtz1jjcGyrfsl0Gr2PnrVVRUQHnmP2bqxjnUaU2Pb7Xcmx7ZFz1rMRrc9kzqIOj3safvRbFsMmsZsw/1oti3MqGMDL+ggRlpTyQj3W+WCygjsTlsU9a8qKxAWo3ycJEPpj2vykaJFvJ/kIaVDcszCdMyGxy1BamNw3FUejJIY+OMFHXNHyf7kcYmYFjXHMf2Y4TogqtmOaTHKx0kalP64JhMpWvR6XJKAJG0cmu2YPkgiYpIktcJ0zL4dl4QjxW3p/SQdSn9ckxEqE8pAWxSOS4gJJ3VIjlmYjtnwOKYfUysMFqZjjtFxTWigP04SYGytfAplXEuz7UklIpV8EFMn+QfbMd4imt/tcU2EQvrjmkz4/YXKBNWHwvGIlcctRIsJtyoZIW0cmu2YPjD9mCRJrTAdc4yODxv9cXSywmER7xeTT+qQHLMwHbPhcZKKmFrhsDAdU6J0HZCRJCYX0xl2CeVDvpaYe9csexaMIz0cZSSpyHs8UnoUKB/qKXJ5qUUxjrzXYjCZ9360U427X5QP9Vpi4g2J6cUkCchZ1sPRCzHblK5n3gOSk5+tRflQr6UYQ1KPAOnBiImZDwzlQz0kJhdzz5ov9NIcy5hTcmcxN9bX2DR3n64G6po5ixWKMlYtrsUzZ/KeD5tnOk16NMpIUpH3cHTJoQYUM0rqCnJZooyY+aCShtyYwyG3NCAmPkqkYhGTJCJn+/oeTdl1D8hokiQjZqHCUUdJCmrJ2D6xVQEJ6CoV3ZLKRK+USGoSmYhiwq3KRxll7FiRJCHmsdGkmH4tGes1SQK6iq4CMVZ0lY527UiSETOvhJRRwrSYcGklxMjYPhHTjxlWIMaCdT0oxNpZu3U85l+ohEA5B9y78avsiovvSs7nqajPLRwujB8JtlVChK5y0ZQnSnRDignnlZBYezLWE5OPmao8DAqHK1iobDSlmH0tGdsjSSrKWFYJ+V+sByTWxUrILz0gY6MxtXA/mm2LnrUYq257JnUQdfrn0APCtgUGqdueSR3ESGtMLdwfagJt22OixTh129O0EWONe0B42izPPkklDhYsxc7zSxivZu/DNM2isx/cXHoHCc/v2rv+KzVZN7dYOSnTmBvbbr8zO7YtetZiNrrtmdRB1OlhT9uPZtti0DRmG+5Hs21hRh0beUEHMdJ6cHpAxogkGTG1UtGUJA91ZGyfaAlSiq7iUEdJFHqmRFKXUxMbKCYcc5AqHjFJGmIeG0lKElBLxpaQJCImSdLoURKPpE6TpCNmZYWjoCXEhGvJ2D4R048ZVyAGgdx+nUocLLgDhssr7q4Xf5lEvtGTVPC02puufaTyVu8npqzTZEmTiz5SE6ASuspETEkMkroTSpgWE26rcMRkbETMvowkSYPK4QS1UtGUYvK1ZGyfSFIRs6ziEbOjdUD6pTE5x1xzDO0YafmQd6zQmDla2am2no9Yu3H0WjjmmrFox5R25tiuYZ+1fKg7Ok1PhWOgZRvNmLz3YrA0ZufYrhmLduxRixk4VmjMGq2s1pieY645hnaMNb0XKW3jutHOfB2rdbgOiGmOoZXyoe5YoWU7qZX91fRaOOaaY2jHMdbyoe7oNCbnmGuOsSpn3XNBug2epvtm62m67vV4fUefzLT2FzW9Go65Zi7aEe3MsF3DGj3ktZhOqZbtpFYWNb0Uju2aMXnPxWBpTNexXTMWrdzitRh0qcbE0cqR1VQsHHPNsfZ1P2Jt48r1Lz0gRsb2iSQdMV1loltKItEzJZJaTD6mmHBp74dRxo4VSRJiHhtNiunXkrFekySgUyQpGntKIpLQJBdlbK+IxJQwLSb8S0XEce3Tb7atedFrcL41s97U5IGkaKSpiU1EV7loSkkckrohxYTbKRGSsZ6YfEySo0HlcIJaueiWYva1ZGyXJJkoY1zxiDkqPSCYXrgfzbYFRqvbnkkdRL12lYp2bZWPao2phfvRbFuMupYP8aT2xMzC/aol1LAl0LY9SNqIqcWabYuOtRipbnsmdRCd6vIeEMfutEWsnYn2ojG/cD+abQuMUbc9kzqIkdaYWrgfzbbFqGsxSt32jDVGGvd8qFn7CDWmuHTGqz09jykMnlK7Yc5ef36rcDiWaUyNbduPZtuiZy2/o257JnUQdXrY0/aHmkDb9iBpI2Yba7YtMGLd9kzqIEZaW8XD9lvlgsoI7E7nEeqfxzogJA/h/jIdkmMWpmM2PG4JU0itNFiQLIT7Te+w/SWsPG4R6JgW0X5MXhnoZIXDwnTMUTpO0hDzGLQwHbNfxyUpSNLGodn2JIlQsi/UQva1aBHv7/m4JBqF417H3FbUJBsF+uOajFCpiGkhJpykjUOzHdOix+MkATG14mBhOuYYHcf096z9LLvz5pldPxuFqgdrfuzf+J2ej6SpjRY9HtcEKqJWHixILlKkGtH4uETheBBiwknaODTbnpi8kn1es91GizE+Pux1SK1MWJiOaSEmn6SNQ7Md06LD4yQVSn+8pYWFCodFvD84PqrrgGB2ZVTjNsqHei0x877Rej7SpOciJslEkZhjSo8C5UM+JD0VMTH1QSVGGNMZeJ8oH/q1xLwbEpOLifmXM9Wz0Skx15SuZ7jeR0x+pjbKh3otxShGmvRalBEzHzPKh3qKmF2LmHSgMfUUD23+Ids8d3/22D0rdent00+/NpmUnHzq5bpc+LS7l+l45uXnKevxaEZ6NmJyLsdYd8GhBhQzakp6KmJi6oPKcL0P43DILQ2Iaaf0CJAKRUyShpxlPR2d8+d5F0xMSQpqydguSdJRR1epaEoqEyndCyVKiOnHHKSej5gkDTGPjSYlCaglYz1JGmK6ysOgUBKjgCQZMUes5yPWXRCTj5mqPAwKqSIUKCZvbFv/wyhjx5qpSojRVS7KeKJEN6SYbjslQs3YcL9pIaYfU6sPA8rhBAsVjTqKudeSsX0iyUTMyspHwJ9pD0isXaWjPz0gsXYmOKpaPuR12xNTC/ej1ax9DJrG1ML9oSbQtt2VFmPVbc+kDqKpNpb3gLjItWMzbRFrZ6q9aMwt3I9m2wJj1G3PpA5ipDWmFu5Hs20x6lqMU7c9Y42xNu0B6U67yka7zispnWhMjW3bj2bbomct5qLbnkkdRJ0e9rT9oSbQtj1I2ojZmibQtq1ajFi3PZM6iJHSRqt8hJptKiSwO51HqH8eFRCSh5SuImP7RE14IrrKQxklUUjqXijRkJh9zF8qHhWUpKCWjPUkiYhJkjR2lMSjgiQZZUxWOApaQky4loztMzH/MpJkDSox/ZiDWPEwakIU0VUojJIQJHUvlDAtJpxXPErIWE/MPiZJ0qByOEGtVDSlmHwtGdsnklTELKtw1HFU1wHBLB3bNWPRSvlQd6zQmDda2au2ng/bX9T0WjjmmrloR9+DkdRwhLV8yDs6TW+FY645hnYcLE2vhmOuOYZ27FHLh7pjhcas0cpqjck55ppj+boesabnIqVtXDfamW27hkWd93zkmmNox0jLh7pjhZZt1cr+anotHNs1Y/KejDHS8qHuWNQYsKNozDjQjEU7jrS2Ho9Y27iiplfDMdfMRTuinTk6dqiHvBbTKdWyrVpZremtcMw1x9COg6Xz3o9ccwyt3FKixaBLNSaOVvZXU6FwzDXH8nU+Ym09Hba/uf6lB8TI2C6piUwJXYWiU0rikNS9UCKiJjBQTDjmLxWRCorp15KxniQJMUmOBoeSmAQkyYjZ3vMRU8K0mG7jikisuyAmH5NkalCpiUxIMfnS3g+jjB0raiJTQlexqKMkCkndkGK67ZQINWPD/aIx+zKSHA0qhxPUSkZTirnXkrF9IslEzLjSUcYR7QExYoKmCYzVtgvaM6mDaNeuMtGuraLRTBsxNY6Fmm2LUdfyoa7bnrHG1GzdD4hWs/YxaBpTC/ej2bboWYux6rZnUgdRp0em5yPWefSqMbVwP5ptC4xQtz2TOoiR1phZuD/UBNq2x0SLceq2p2kjxjo6PSBWwehGW1ilw5kxRLNt0bEWM9Ftz6QOolM97Gn70WxbDJrGXMP9aLYtMF7d9kzqIEZaU4kI91ulgsoI7E5bxDrsATme/f+5QuysO1p34QAAAABJRU5ErkJggg==;" parent="1" vertex="1">
          <mxGeometry x="2666" y="2508.87" width="130" height="15.77" as="geometry" />
        </mxCell>
        <mxCell id="qEDchrl7Dc7vFiWdn660-2" style="edgeStyle=orthogonalEdgeStyle;rounded=0;orthogonalLoop=1;jettySize=auto;html=1;entryX=-0.035;entryY=0.575;entryDx=0;entryDy=0;entryPerimeter=0;" parent="1" source="fLMCegYD0Tb1E4QCByGs-70" target="fLMCegYD0Tb1E4QCByGs-41" edge="1">
          <mxGeometry relative="1" as="geometry" />
        </mxCell>
        <mxCell id="qEDchrl7Dc7vFiWdn660-3" value="" style="html=1;verticalLabelPosition=bottom;labelBackgroundColor=#ffffff;verticalAlign=top;shadow=0;dashed=0;strokeWidth=2;shape=mxgraph.ios7.misc.star;fillColor=#0080f0;strokeColor=none;sketch=0;" parent="1" vertex="1">
          <mxGeometry x="442" y="1752" width="22" height="20" as="geometry" />
        </mxCell>
        <mxCell id="qEDchrl7Dc7vFiWdn660-5" value="" style="html=1;verticalLabelPosition=bottom;labelBackgroundColor=#ffffff;verticalAlign=top;shadow=0;dashed=0;strokeWidth=2;shape=mxgraph.ios7.misc.star;fillColor=#0080f0;strokeColor=none;sketch=0;" parent="1" vertex="1">
          <mxGeometry x="967.9999999999999" y="1532" width="22" height="20" as="geometry" />
        </mxCell>
        <mxCell id="gB1bMh3g8ZrPAFYnOkoU-2" value="&lt;font style=&quot;font-size: 10px;&quot;&gt;/Scores&lt;/font&gt;" style="image;aspect=fixed;html=1;points=[];align=center;fontSize=12;image=img/lib/azure2/general/Table.svg;" vertex="1" parent="1">
          <mxGeometry x="827" y="1562" width="53" height="43.07" as="geometry" />
        </mxCell>
        <mxCell id="gB1bMh3g8ZrPAFYnOkoU-5" style="edgeStyle=orthogonalEdgeStyle;rounded=0;orthogonalLoop=1;jettySize=auto;html=1;entryX=0.034;entryY=0.592;entryDx=0;entryDy=0;entryPerimeter=0;" edge="1" parent="1" source="gB1bMh3g8ZrPAFYnOkoU-2" target="fLMCegYD0Tb1E4QCByGs-44">
          <mxGeometry relative="1" as="geometry" />
        </mxCell>
        <mxCell id="gB1bMh3g8ZrPAFYnOkoU-6" value="&lt;font style=&quot;font-size: 10px;&quot;&gt;/CommPool&lt;/font&gt;" style="image;aspect=fixed;html=1;points=[];align=center;fontSize=12;image=img/lib/azure2/general/Table.svg;" vertex="1" parent="1">
          <mxGeometry x="1060" y="1786" width="53" height="43.07" as="geometry" />
        </mxCell>
        <mxCell id="gB1bMh3g8ZrPAFYnOkoU-7" style="edgeStyle=orthogonalEdgeStyle;rounded=0;orthogonalLoop=1;jettySize=auto;html=1;entryX=0.047;entryY=0.573;entryDx=0;entryDy=0;entryPerimeter=0;" edge="1" parent="1">
          <mxGeometry relative="1" as="geometry">
            <mxPoint x="1113" y="1807.5238095238094" as="sourcePoint" />
            <mxPoint x="1141.7889799999998" y="1807.6952500000002" as="targetPoint" />
          </mxGeometry>
        </mxCell>
        <mxCell id="gB1bMh3g8ZrPAFYnOkoU-8" value="&lt;font style=&quot;font-size: 10px;&quot;&gt;/WeeklyDistinctComms&lt;/font&gt;" style="image;aspect=fixed;html=1;points=[];align=center;fontSize=12;image=img/lib/azure2/general/Table.svg;" vertex="1" parent="1">
          <mxGeometry x="299" y="1765" width="53" height="43.07" as="geometry" />
        </mxCell>
        <mxCell id="gB1bMh3g8ZrPAFYnOkoU-10" style="edgeStyle=orthogonalEdgeStyle;rounded=0;orthogonalLoop=1;jettySize=auto;html=1;entryX=0.012;entryY=0.326;entryDx=0;entryDy=0;entryPerimeter=0;" edge="1" parent="1" source="gB1bMh3g8ZrPAFYnOkoU-8" target="fLMCegYD0Tb1E4QCByGs-70">
          <mxGeometry relative="1" as="geometry" />
        </mxCell>
        <mxCell id="gB1bMh3g8ZrPAFYnOkoU-11" value="&lt;font style=&quot;font-size: 10px;&quot;&gt;/CommsToBeSent&lt;/font&gt;" style="image;aspect=fixed;html=1;points=[];align=center;fontSize=12;image=img/lib/azure2/general/Table.svg;" vertex="1" parent="1">
          <mxGeometry x="2093" y="1986" width="53" height="43.07" as="geometry" />
        </mxCell>
        <mxCell id="gB1bMh3g8ZrPAFYnOkoU-13" style="edgeStyle=orthogonalEdgeStyle;rounded=0;orthogonalLoop=1;jettySize=auto;html=1;entryX=0.953;entryY=0.644;entryDx=0;entryDy=0;entryPerimeter=0;" edge="1" parent="1" source="fLMCegYD0Tb1E4QCByGs-85" target="gB1bMh3g8ZrPAFYnOkoU-11">
          <mxGeometry relative="1" as="geometry" />
        </mxCell>
        <mxCell id="gB1bMh3g8ZrPAFYnOkoU-14" value="&lt;font style=&quot;font-size: 10px;&quot;&gt;/WeeklyDistinctCommsLog&lt;/font&gt;" style="image;aspect=fixed;html=1;points=[];align=center;fontSize=12;image=img/lib/azure2/general/Table.svg;" vertex="1" parent="1">
          <mxGeometry x="2541" y="1777" width="53" height="43.07" as="geometry" />
        </mxCell>
        <mxCell id="gB1bMh3g8ZrPAFYnOkoU-17" value="&lt;font style=&quot;font-size: 10px;&quot;&gt;/CommsToBeSynced&lt;/font&gt;" style="image;aspect=fixed;html=1;points=[];align=center;fontSize=12;image=img/lib/azure2/general/Table.svg;" vertex="1" parent="1">
          <mxGeometry x="2528" y="1992" width="53" height="43.07" as="geometry" />
        </mxCell>
      </root>
    </mxGraphModel>
  </diagram>
</mxfile>
